ISO-10303-21;
HEADER;
FILE_DESCRIPTION(('FreeCAD Model'),'2;1');
FILE_NAME('Open CASCADE Shape Model','2026-04-01T14:00:16',('Author'),(
    ''),'Open CASCADE STEP processor 7.9','FreeCAD','Unknown');
FILE_SCHEMA(('AUTOMOTIVE_DESIGN { 1 0 10303 214 1 1 1 1 }'));
ENDSEC;
DATA;
#1 = APPLICATION_PROTOCOL_DEFINITION('international standard',
  'automotive_design',2000,#2);
#2 = APPLICATION_CONTEXT(
  'core data for automotive mechanical design processes');
#3 = SHAPE_DEFINITION_REPRESENTATION(#4,#10);
#4 = PRODUCT_DEFINITION_SHAPE('','',#5);
#5 = PRODUCT_DEFINITION('design','',#6,#9);
#6 = PRODUCT_DEFINITION_FORMATION('','',#7);
#7 = PRODUCT('Pad005','Pad005','',(#8));
#8 = PRODUCT_CONTEXT('',#2,'mechanical');
#9 = PRODUCT_DEFINITION_CONTEXT('part definition',#2,'design');
#10 = ADVANCED_BREP_SHAPE_REPRESENTATION('',(#11,#15),#2354);
#11 = AXIS2_PLACEMENT_3D('',#12,#13,#14);
#12 = CARTESIAN_POINT('',(0.,0.,0.));
#13 = DIRECTION('',(0.,0.,1.));
#14 = DIRECTION('',(1.,0.,-0.));
#15 = MANIFOLD_SOLID_BREP('',#16);
#16 = CLOSED_SHELL('',(#17,#59,#90,#121,#165,#217,#459,#476,#516,#575,
    #600,#640,#693,#752,#776,#800,#840,#857,#890,#914,#931,#973,#990,
    #1007,#1040,#1064,#1081,#1123,#1140,#1157,#1190,#1214,#1231,#1273,
    #1290,#1307,#1359,#1379,#1411,#1435,#1459,#1476,#1496,#1509,#1541,
    #1565,#1589,#1606,#1650,#1668,#1678,#1739,#1800,#1861,#1893,#1917,
    #1941,#1958,#2014,#2032,#2088,#2130,#2154,#2178,#2195,#2219,#2236,
    #2253,#2265,#2289,#2306,#2323,#2335));
#17 = ADVANCED_FACE('',(#18),#54,.T.);
#18 = FACE_BOUND('',#19,.F.);
#19 = EDGE_LOOP('',(#20,#30,#39,#47));
#20 = ORIENTED_EDGE('',*,*,#21,.T.);
#21 = EDGE_CURVE('',#22,#24,#26,.T.);
#22 = VERTEX_POINT('',#23);
#23 = CARTESIAN_POINT('',(18.517173857508,38.20148114922,0.));
#24 = VERTEX_POINT('',#25);
#25 = CARTESIAN_POINT('',(18.517173857508,38.20148114922,-11.8));
#26 = LINE('',#27,#28);
#27 = CARTESIAN_POINT('',(18.517173857508,38.20148114922,0.));
#28 = VECTOR('',#29,1.);
#29 = DIRECTION('',(0.,0.,-1.));
#30 = ORIENTED_EDGE('',*,*,#31,.T.);
#31 = EDGE_CURVE('',#24,#32,#34,.T.);
#32 = VERTEX_POINT('',#33);
#33 = CARTESIAN_POINT('',(84.988979038337,35.299259458194,-11.8));
#34 = CIRCLE('',#35,33.299259458194);
#35 = AXIS2_PLACEMENT_3D('',#36,#37,#38);
#36 = CARTESIAN_POINT('',(51.689719580142,35.299259458194,-11.8));
#37 = DIRECTION('',(0.,0.,-1.));
#38 = DIRECTION('',(-1.,0.,0.));
#39 = ORIENTED_EDGE('',*,*,#40,.F.);
#40 = EDGE_CURVE('',#41,#32,#43,.T.);
#41 = VERTEX_POINT('',#42);
#42 = CARTESIAN_POINT('',(84.988979038337,35.299259458194,0.));
#43 = LINE('',#44,#45);
#44 = CARTESIAN_POINT('',(84.988979038337,35.299259458194,0.));
#45 = VECTOR('',#46,1.);
#46 = DIRECTION('',(0.,0.,-1.));
#47 = ORIENTED_EDGE('',*,*,#48,.F.);
#48 = EDGE_CURVE('',#22,#41,#49,.T.);
#49 = CIRCLE('',#50,33.299259458194);
#50 = AXIS2_PLACEMENT_3D('',#51,#52,#53);
#51 = CARTESIAN_POINT('',(51.689719580142,35.299259458194,0.));
#52 = DIRECTION('',(0.,0.,-1.));
#53 = DIRECTION('',(-1.,0.,0.));
#54 = CYLINDRICAL_SURFACE('',#55,33.299259458194);
#55 = AXIS2_PLACEMENT_3D('',#56,#57,#58);
#56 = CARTESIAN_POINT('',(51.689719580142,35.299259458194,0.));
#57 = DIRECTION('',(0.,0.,1.));
#58 = DIRECTION('',(-1.,0.,0.));
#59 = ADVANCED_FACE('',(#60),#85,.T.);
#60 = FACE_BOUND('',#61,.T.);
#61 = EDGE_LOOP('',(#62,#63,#71,#79));
#62 = ORIENTED_EDGE('',*,*,#21,.T.);
#63 = ORIENTED_EDGE('',*,*,#64,.T.);
#64 = EDGE_CURVE('',#24,#65,#67,.T.);
#65 = VERTEX_POINT('',#66);
#66 = CARTESIAN_POINT('',(15.,-2.,-11.8));
#67 = LINE('',#68,#69);
#68 = CARTESIAN_POINT('',(18.517173857508,38.20148114922,-11.8));
#69 = VECTOR('',#70,1.);
#70 = DIRECTION('',(-8.715574274766E-02,-0.996194698092,0.));
#71 = ORIENTED_EDGE('',*,*,#72,.F.);
#72 = EDGE_CURVE('',#73,#65,#75,.T.);
#73 = VERTEX_POINT('',#74);
#74 = CARTESIAN_POINT('',(15.,-2.,0.));
#75 = LINE('',#76,#77);
#76 = CARTESIAN_POINT('',(15.,-2.,0.));
#77 = VECTOR('',#78,1.);
#78 = DIRECTION('',(0.,0.,-1.));
#79 = ORIENTED_EDGE('',*,*,#80,.F.);
#80 = EDGE_CURVE('',#22,#73,#81,.T.);
#81 = LINE('',#82,#83);
#82 = CARTESIAN_POINT('',(18.517173857508,38.20148114922,0.));
#83 = VECTOR('',#84,1.);
#84 = DIRECTION('',(-8.715574274766E-02,-0.996194698092,0.));
#85 = PLANE('',#86);
#86 = AXIS2_PLACEMENT_3D('',#87,#88,#89);
#87 = CARTESIAN_POINT('',(18.517173857508,38.20148114922,0.));
#88 = DIRECTION('',(-0.996194698092,8.715574274766E-02,0.));
#89 = DIRECTION('',(-8.715574274766E-02,-0.996194698092,0.));
#90 = ADVANCED_FACE('',(#91),#116,.F.);
#91 = FACE_BOUND('',#92,.F.);
#92 = EDGE_LOOP('',(#93,#94,#102,#110));
#93 = ORIENTED_EDGE('',*,*,#40,.T.);
#94 = ORIENTED_EDGE('',*,*,#95,.T.);
#95 = EDGE_CURVE('',#32,#96,#98,.T.);
#96 = VERTEX_POINT('',#97);
#97 = CARTESIAN_POINT('',(84.988979038337,6.073762153435,-11.8));
#98 = LINE('',#99,#100);
#99 = CARTESIAN_POINT('',(84.988979038337,35.299259458194,-11.8));
#100 = VECTOR('',#101,1.);
#101 = DIRECTION('',(0.,-1.,0.));
#102 = ORIENTED_EDGE('',*,*,#103,.F.);
#103 = EDGE_CURVE('',#104,#96,#106,.T.);
#104 = VERTEX_POINT('',#105);
#105 = CARTESIAN_POINT('',(84.988979038337,6.073762153435,0.));
#106 = LINE('',#107,#108);
#107 = CARTESIAN_POINT('',(84.988979038337,6.073762153435,0.));
#108 = VECTOR('',#109,1.);
#109 = DIRECTION('',(0.,0.,-1.));
#110 = ORIENTED_EDGE('',*,*,#111,.F.);
#111 = EDGE_CURVE('',#41,#104,#112,.T.);
#112 = LINE('',#113,#114);
#113 = CARTESIAN_POINT('',(84.988979038337,35.299259458194,0.));
#114 = VECTOR('',#115,1.);
#115 = DIRECTION('',(0.,-1.,0.));
#116 = PLANE('',#117);
#117 = AXIS2_PLACEMENT_3D('',#118,#119,#120);
#118 = CARTESIAN_POINT('',(84.988979038337,35.299259458194,0.));
#119 = DIRECTION('',(-1.,-0.,-0.));
#120 = DIRECTION('',(0.,-1.,0.));
#121 = ADVANCED_FACE('',(#122,#149),#160,.T.);
#122 = FACE_BOUND('',#123,.T.);
#123 = EDGE_LOOP('',(#124,#125,#126,#134,#142,#148));
#124 = ORIENTED_EDGE('',*,*,#48,.F.);
#125 = ORIENTED_EDGE('',*,*,#80,.T.);
#126 = ORIENTED_EDGE('',*,*,#127,.T.);
#127 = EDGE_CURVE('',#73,#128,#130,.T.);
#128 = VERTEX_POINT('',#129);
#129 = CARTESIAN_POINT('',(33.438297775985,-2.,0.));
#130 = LINE('',#131,#132);
#131 = CARTESIAN_POINT('',(15.,-2.,0.));
#132 = VECTOR('',#133,1.);
#133 = DIRECTION('',(1.,0.,0.));
#134 = ORIENTED_EDGE('',*,*,#135,.F.);
#135 = EDGE_CURVE('',#136,#128,#138,.T.);
#136 = VERTEX_POINT('',#137);
#137 = CARTESIAN_POINT('',(50.711423725497,-22.68852186722,0.));
#138 = LINE('',#139,#140);
#139 = CARTESIAN_POINT('',(50.711423725497,-22.68852186722,0.));
#140 = VECTOR('',#141,1.);
#141 = DIRECTION('',(-0.640899970002,0.767624405846,0.));
#142 = ORIENTED_EDGE('',*,*,#143,.F.);
#143 = EDGE_CURVE('',#104,#136,#144,.T.);
#144 = LINE('',#145,#146);
#145 = CARTESIAN_POINT('',(84.988979038337,6.073762153435,0.));
#146 = VECTOR('',#147,1.);
#147 = DIRECTION('',(-0.766044443119,-0.642787609687,0.));
#148 = ORIENTED_EDGE('',*,*,#111,.F.);
#149 = FACE_BOUND('',#150,.T.);
#150 = EDGE_LOOP('',(#151));
#151 = ORIENTED_EDGE('',*,*,#152,.F.);
#152 = EDGE_CURVE('',#153,#153,#155,.T.);
#153 = VERTEX_POINT('',#154);
#154 = CARTESIAN_POINT('',(48.889719580142,35.299259458194,0.));
#155 = CIRCLE('',#156,2.8);
#156 = AXIS2_PLACEMENT_3D('',#157,#158,#159);
#157 = CARTESIAN_POINT('',(51.689719580142,35.299259458194,0.));
#158 = DIRECTION('',(0.,-0.,1.));
#159 = DIRECTION('',(-1.,0.,0.));
#160 = PLANE('',#161);
#161 = AXIS2_PLACEMENT_3D('',#162,#163,#164);
#162 = CARTESIAN_POINT('',(42.177609581958,0.140686705094,0.));
#163 = DIRECTION('',(0.,0.,1.));
#164 = DIRECTION('',(1.,0.,0.));
#165 = ADVANCED_FACE('',(#166,#201),#212,.F.);
#166 = FACE_BOUND('',#167,.F.);
#167 = EDGE_LOOP('',(#168,#169,#170,#178,#186,#194,#200));
#168 = ORIENTED_EDGE('',*,*,#31,.F.);
#169 = ORIENTED_EDGE('',*,*,#64,.T.);
#170 = ORIENTED_EDGE('',*,*,#171,.F.);
#171 = EDGE_CURVE('',#172,#65,#174,.T.);
#172 = VERTEX_POINT('',#173);
#173 = CARTESIAN_POINT('',(15.,-73.53783414169,-11.8));
#174 = LINE('',#175,#176);
#175 = CARTESIAN_POINT('',(15.,-73.53783414169,-11.8));
#176 = VECTOR('',#177,1.);
#177 = DIRECTION('',(2.483101229878E-17,1.,0.));
#178 = ORIENTED_EDGE('',*,*,#179,.F.);
#179 = EDGE_CURVE('',#180,#172,#182,.T.);
#180 = VERTEX_POINT('',#181);
#181 = CARTESIAN_POINT('',(27.,-73.53783414169,-11.8));
#182 = LINE('',#183,#184);
#183 = CARTESIAN_POINT('',(27.,-73.53783414169,-11.8));
#184 = VECTOR('',#185,1.);
#185 = DIRECTION('',(-1.,0.,0.));
#186 = ORIENTED_EDGE('',*,*,#187,.F.);
#187 = EDGE_CURVE('',#188,#180,#190,.T.);
#188 = VERTEX_POINT('',#189);
#189 = CARTESIAN_POINT('',(50.711423725497,-22.68852186722,-11.8));
#190 = LINE('',#191,#192);
#191 = CARTESIAN_POINT('',(50.711423725497,-22.68852186722,-11.8));
#192 = VECTOR('',#193,1.);
#193 = DIRECTION('',(-0.422618261741,-0.906307787037,0.));
#194 = ORIENTED_EDGE('',*,*,#195,.F.);
#195 = EDGE_CURVE('',#96,#188,#196,.T.);
#196 = LINE('',#197,#198);
#197 = CARTESIAN_POINT('',(84.988979038337,6.073762153435,-11.8));
#198 = VECTOR('',#199,1.);
#199 = DIRECTION('',(-0.766044443119,-0.642787609687,0.));
#200 = ORIENTED_EDGE('',*,*,#95,.F.);
#201 = FACE_BOUND('',#202,.F.);
#202 = EDGE_LOOP('',(#203));
#203 = ORIENTED_EDGE('',*,*,#204,.T.);
#204 = EDGE_CURVE('',#205,#205,#207,.T.);
#205 = VERTEX_POINT('',#206);
#206 = CARTESIAN_POINT('',(40.639719580142,35.299259458194,-11.8));
#207 = CIRCLE('',#208,11.05);
#208 = AXIS2_PLACEMENT_3D('',#209,#210,#211);
#209 = CARTESIAN_POINT('',(51.689719580142,35.299259458194,-11.8));
#210 = DIRECTION('',(0.,0.,-1.));
#211 = DIRECTION('',(-1.,0.,0.));
#212 = PLANE('',#213);
#213 = AXIS2_PLACEMENT_3D('',#214,#215,#216);
#214 = CARTESIAN_POINT('',(42.177609581958,0.140686705094,-11.8));
#215 = DIRECTION('',(0.,0.,1.));
#216 = DIRECTION('',(1.,0.,0.));
#217 = ADVANCED_FACE('',(#218,#268,#294,#330,#356,#392,#418),#454,.T.);
#218 = FACE_BOUND('',#219,.T.);
#219 = EDGE_LOOP('',(#220,#228,#236,#244,#252,#260,#266,#267));
#220 = ORIENTED_EDGE('',*,*,#221,.F.);
#221 = EDGE_CURVE('',#222,#172,#224,.T.);
#222 = VERTEX_POINT('',#223);
#223 = CARTESIAN_POINT('',(15.,-73.53783414169,20.2));
#224 = LINE('',#225,#226);
#225 = CARTESIAN_POINT('',(15.,-73.53783414169,0.));
#226 = VECTOR('',#227,1.);
#227 = DIRECTION('',(0.,0.,-1.));
#228 = ORIENTED_EDGE('',*,*,#229,.F.);
#229 = EDGE_CURVE('',#230,#222,#232,.T.);
#230 = VERTEX_POINT('',#231);
#231 = CARTESIAN_POINT('',(15.,-22.208751,20.2));
#232 = LINE('',#233,#234);
#233 = CARTESIAN_POINT('',(15.,-22.208751,20.2));
#234 = VECTOR('',#235,1.);
#235 = DIRECTION('',(0.,-1.,0.));
#236 = ORIENTED_EDGE('',*,*,#237,.F.);
#237 = EDGE_CURVE('',#238,#230,#240,.T.);
#238 = VERTEX_POINT('',#239);
#239 = CARTESIAN_POINT('',(15.,-22.208751,54.991249));
#240 = LINE('',#241,#242);
#241 = CARTESIAN_POINT('',(15.,-22.208751,55.));
#242 = VECTOR('',#243,1.);
#243 = DIRECTION('',(0.,0.,-1.));
#244 = ORIENTED_EDGE('',*,*,#245,.F.);
#245 = EDGE_CURVE('',#246,#238,#248,.T.);
#246 = VERTEX_POINT('',#247);
#247 = CARTESIAN_POINT('',(15.,-22.2,55.));
#248 = LINE('',#249,#250);
#249 = CARTESIAN_POINT('',(15.,-22.2,55.));
#250 = VECTOR('',#251,1.);
#251 = DIRECTION('',(0.,-0.707106781187,-0.707106781187));
#252 = ORIENTED_EDGE('',*,*,#253,.F.);
#253 = EDGE_CURVE('',#254,#246,#256,.T.);
#254 = VERTEX_POINT('',#255);
#255 = CARTESIAN_POINT('',(15.,-2.,55.));
#256 = LINE('',#257,#258);
#257 = CARTESIAN_POINT('',(15.,-2.,55.));
#258 = VECTOR('',#259,1.);
#259 = DIRECTION('',(0.,-1.,0.));
#260 = ORIENTED_EDGE('',*,*,#261,.F.);
#261 = EDGE_CURVE('',#73,#254,#262,.T.);
#262 = LINE('',#263,#264);
#263 = CARTESIAN_POINT('',(15.,-2.,30.));
#264 = VECTOR('',#265,1.);
#265 = DIRECTION('',(0.,0.,1.));
#266 = ORIENTED_EDGE('',*,*,#72,.T.);
#267 = ORIENTED_EDGE('',*,*,#171,.F.);
#268 = FACE_BOUND('',#269,.T.);
#269 = EDGE_LOOP('',(#270,#280,#288));
#270 = ORIENTED_EDGE('',*,*,#271,.T.);
#271 = EDGE_CURVE('',#272,#274,#276,.T.);
#272 = VERTEX_POINT('',#273);
#273 = CARTESIAN_POINT('',(15.,-17.14544826719,39.95));
#274 = VERTEX_POINT('',#275);
#275 = CARTESIAN_POINT('',(15.,-17.,39.866025403784));
#276 = LINE('',#277,#278);
#277 = CARTESIAN_POINT('',(15.,-18.45325191163,40.705060786166));
#278 = VECTOR('',#279,1.);
#279 = DIRECTION('',(0.,0.866025403784,-0.5));
#280 = ORIENTED_EDGE('',*,*,#281,.F.);
#281 = EDGE_CURVE('',#282,#274,#284,.T.);
#282 = VERTEX_POINT('',#283);
#283 = CARTESIAN_POINT('',(15.,-16.85455173281,39.95));
#284 = LINE('',#285,#286);
#285 = CARTESIAN_POINT('',(15.,-28.4729787577,33.242098029619));
#286 = VECTOR('',#287,1.);
#287 = DIRECTION('',(0.,-0.866025403784,-0.5));
#288 = ORIENTED_EDGE('',*,*,#289,.F.);
#289 = EDGE_CURVE('',#272,#282,#290,.T.);
#290 = LINE('',#291,#292);
#291 = CARTESIAN_POINT('',(15.,-25.54476297929,39.95));
#292 = VECTOR('',#293,1.);
#293 = DIRECTION('',(0.,1.,0.));
#294 = FACE_BOUND('',#295,.T.);
#295 = EDGE_LOOP('',(#296,#307,#316,#324));
#296 = ORIENTED_EDGE('',*,*,#297,.F.);
#297 = EDGE_CURVE('',#298,#300,#302,.T.);
#298 = VERTEX_POINT('',#299);
#299 = CARTESIAN_POINT('',(15.,-17.,38.25));
#300 = VERTEX_POINT('',#301);
#301 = CARTESIAN_POINT('',(15.,-17.375,39.649519052838));
#302 = CIRCLE('',#303,0.75);
#303 = AXIS2_PLACEMENT_3D('',#304,#305,#306);
#304 = CARTESIAN_POINT('',(15.,-17.,39.));
#305 = DIRECTION('',(-1.,-0.,-0.));
#306 = DIRECTION('',(0.,0.,-1.));
#307 = ORIENTED_EDGE('',*,*,#308,.F.);
#308 = EDGE_CURVE('',#309,#298,#311,.T.);
#309 = VERTEX_POINT('',#310);
#310 = CARTESIAN_POINT('',(15.,-16.625,39.649519052838));
#311 = CIRCLE('',#312,0.75);
#312 = AXIS2_PLACEMENT_3D('',#313,#314,#315);
#313 = CARTESIAN_POINT('',(15.,-17.,39.));
#314 = DIRECTION('',(-1.,-0.,-0.));
#315 = DIRECTION('',(0.,0.,-1.));
#316 = ORIENTED_EDGE('',*,*,#317,.F.);
#317 = EDGE_CURVE('',#318,#309,#320,.T.);
#318 = VERTEX_POINT('',#319);
#319 = CARTESIAN_POINT('',(15.,-17.,39.866025403784));
#320 = LINE('',#321,#322);
#321 = CARTESIAN_POINT('',(15.,-18.26575191163,40.596807610693));
#322 = VECTOR('',#323,1.);
#323 = DIRECTION('',(0.,0.866025403784,-0.5));
#324 = ORIENTED_EDGE('',*,*,#325,.T.);
#325 = EDGE_CURVE('',#318,#300,#326,.T.);
#326 = LINE('',#327,#328);
#327 = CARTESIAN_POINT('',(15.,-28.6604787577,33.133844854146));
#328 = VECTOR('',#329,1.);
#329 = DIRECTION('',(0.,-0.866025403784,-0.5));
#330 = FACE_BOUND('',#331,.T.);
#331 = EDGE_LOOP('',(#332,#342,#350));
#332 = ORIENTED_EDGE('',*,*,#333,.T.);
#333 = EDGE_CURVE('',#334,#336,#338,.T.);
#334 = VERTEX_POINT('',#335);
#335 = CARTESIAN_POINT('',(15.,-17.14544826719,15.95));
#336 = VERTEX_POINT('',#337);
#337 = CARTESIAN_POINT('',(15.,-17.,15.866025403784));
#338 = LINE('',#339,#340);
#339 = CARTESIAN_POINT('',(15.,-23.64940433433,19.705060786166));
#340 = VECTOR('',#341,1.);
#341 = DIRECTION('',(0.,0.866025403784,-0.5));
#342 = ORIENTED_EDGE('',*,*,#343,.F.);
#343 = EDGE_CURVE('',#344,#336,#346,.T.);
#344 = VERTEX_POINT('',#345);
#345 = CARTESIAN_POINT('',(15.,-16.8545517328,15.95));
#346 = LINE('',#347,#348);
#347 = CARTESIAN_POINT('',(15.,-23.27682633499,12.242098029619));
#348 = VECTOR('',#349,1.);
#349 = DIRECTION('',(0.,-0.866025403784,-0.5));
#350 = ORIENTED_EDGE('',*,*,#351,.F.);
#351 = EDGE_CURVE('',#334,#344,#352,.T.);
#352 = LINE('',#353,#354);
#353 = CARTESIAN_POINT('',(15.,-25.54476297929,15.95));
#354 = VECTOR('',#355,1.);
#355 = DIRECTION('',(0.,1.,0.));
#356 = FACE_BOUND('',#357,.T.);
#357 = EDGE_LOOP('',(#358,#369,#378,#386));
#358 = ORIENTED_EDGE('',*,*,#359,.F.);
#359 = EDGE_CURVE('',#360,#362,#364,.T.);
#360 = VERTEX_POINT('',#361);
#361 = CARTESIAN_POINT('',(15.,-17.,14.25));
#362 = VERTEX_POINT('',#363);
#363 = CARTESIAN_POINT('',(15.,-17.375,15.649519052838));
#364 = CIRCLE('',#365,0.75);
#365 = AXIS2_PLACEMENT_3D('',#366,#367,#368);
#366 = CARTESIAN_POINT('',(15.,-17.,15.));
#367 = DIRECTION('',(-1.,-0.,-0.));
#368 = DIRECTION('',(0.,0.,-1.));
#369 = ORIENTED_EDGE('',*,*,#370,.F.);
#370 = EDGE_CURVE('',#371,#360,#373,.T.);
#371 = VERTEX_POINT('',#372);
#372 = CARTESIAN_POINT('',(15.,-16.625,15.649519052838));
#373 = CIRCLE('',#374,0.75);
#374 = AXIS2_PLACEMENT_3D('',#375,#376,#377);
#375 = CARTESIAN_POINT('',(15.,-17.,15.));
#376 = DIRECTION('',(-1.,-0.,-0.));
#377 = DIRECTION('',(0.,0.,-1.));
#378 = ORIENTED_EDGE('',*,*,#379,.F.);
#379 = EDGE_CURVE('',#380,#371,#382,.T.);
#380 = VERTEX_POINT('',#381);
#381 = CARTESIAN_POINT('',(15.,-17.,15.866025403784));
#382 = LINE('',#383,#384);
#383 = CARTESIAN_POINT('',(15.,-23.46190433433,19.596807610693));
#384 = VECTOR('',#385,1.);
#385 = DIRECTION('',(0.,0.866025403784,-0.5));
#386 = ORIENTED_EDGE('',*,*,#387,.T.);
#387 = EDGE_CURVE('',#380,#362,#388,.T.);
#388 = LINE('',#389,#390);
#389 = CARTESIAN_POINT('',(15.,-23.46432633499,12.133844854146));
#390 = VECTOR('',#391,1.);
#391 = DIRECTION('',(0.,-0.866025403784,-0.5));
#392 = FACE_BOUND('',#393,.T.);
#393 = EDGE_LOOP('',(#394,#404,#412));
#394 = ORIENTED_EDGE('',*,*,#395,.T.);
#395 = EDGE_CURVE('',#396,#398,#400,.T.);
#396 = VERTEX_POINT('',#397);
#397 = CARTESIAN_POINT('',(15.,-56.14544826719,15.95));
#398 = VERTEX_POINT('',#399);
#399 = CARTESIAN_POINT('',(15.,-56.,15.866025403784));
#400 = LINE('',#401,#402);
#401 = CARTESIAN_POINT('',(15.,-48.02440433433,11.261313099268));
#402 = VECTOR('',#403,1.);
#403 = DIRECTION('',(0.,0.866025403784,-0.5));
#404 = ORIENTED_EDGE('',*,*,#405,.F.);
#405 = EDGE_CURVE('',#406,#398,#408,.T.);
#406 = VERTEX_POINT('',#407);
#407 = CARTESIAN_POINT('',(15.,-55.8545517328,15.95));
#408 = LINE('',#409,#410);
#409 = CARTESIAN_POINT('',(15.,-47.65182633499,20.685845716518));
#410 = VECTOR('',#411,1.);
#411 = DIRECTION('',(0.,-0.866025403784,-0.5));
#412 = ORIENTED_EDGE('',*,*,#413,.F.);
#413 = EDGE_CURVE('',#396,#406,#414,.T.);
#414 = LINE('',#415,#416);
#415 = CARTESIAN_POINT('',(15.,-45.04476297929,15.95));
#416 = VECTOR('',#417,1.);
#417 = DIRECTION('',(0.,1.,0.));
#418 = FACE_BOUND('',#419,.T.);
#419 = EDGE_LOOP('',(#420,#431,#440,#448));
#420 = ORIENTED_EDGE('',*,*,#421,.F.);
#421 = EDGE_CURVE('',#422,#424,#426,.T.);
#422 = VERTEX_POINT('',#423);
#423 = CARTESIAN_POINT('',(15.,-56.,14.25));
#424 = VERTEX_POINT('',#425);
#425 = CARTESIAN_POINT('',(15.,-56.375,15.649519052838));
#426 = CIRCLE('',#427,0.75);
#427 = AXIS2_PLACEMENT_3D('',#428,#429,#430);
#428 = CARTESIAN_POINT('',(15.,-56.,15.));
#429 = DIRECTION('',(-1.,-0.,-0.));
#430 = DIRECTION('',(0.,0.,-1.));
#431 = ORIENTED_EDGE('',*,*,#432,.F.);
#432 = EDGE_CURVE('',#433,#422,#435,.T.);
#433 = VERTEX_POINT('',#434);
#434 = CARTESIAN_POINT('',(15.,-55.625,15.649519052838));
#435 = CIRCLE('',#436,0.75);
#436 = AXIS2_PLACEMENT_3D('',#437,#438,#439);
#437 = CARTESIAN_POINT('',(15.,-56.,15.));
#438 = DIRECTION('',(-1.,-0.,-0.));
#439 = DIRECTION('',(0.,0.,-1.));
#440 = ORIENTED_EDGE('',*,*,#441,.F.);
#441 = EDGE_CURVE('',#442,#433,#444,.T.);
#442 = VERTEX_POINT('',#443);
#443 = CARTESIAN_POINT('',(15.,-56.,15.866025403784));
#444 = LINE('',#445,#446);
#445 = CARTESIAN_POINT('',(15.,-47.83690433433,11.153059923794));
#446 = VECTOR('',#447,1.);
#447 = DIRECTION('',(0.,0.866025403784,-0.5));
#448 = ORIENTED_EDGE('',*,*,#449,.T.);
#449 = EDGE_CURVE('',#442,#424,#450,.T.);
#450 = LINE('',#451,#452);
#451 = CARTESIAN_POINT('',(15.,-47.83932633499,20.577592541045));
#452 = VECTOR('',#453,1.);
#453 = DIRECTION('',(0.,-0.866025403784,-0.5));
#454 = PLANE('',#455);
#455 = AXIS2_PLACEMENT_3D('',#456,#457,#458);
#456 = CARTESIAN_POINT('',(15.,-34.23497422577,16.726457436649));
#457 = DIRECTION('',(-1.,-0.,-0.));
#458 = DIRECTION('',(0.,0.,-1.));
#459 = ADVANCED_FACE('',(#460),#471,.F.);
#460 = FACE_BOUND('',#461,.F.);
#461 = EDGE_LOOP('',(#462,#463,#464,#470));
#462 = ORIENTED_EDGE('',*,*,#103,.T.);
#463 = ORIENTED_EDGE('',*,*,#195,.T.);
#464 = ORIENTED_EDGE('',*,*,#465,.F.);
#465 = EDGE_CURVE('',#136,#188,#466,.T.);
#466 = LINE('',#467,#468);
#467 = CARTESIAN_POINT('',(50.711423725497,-22.68852186722,0.));
#468 = VECTOR('',#469,1.);
#469 = DIRECTION('',(0.,0.,-1.));
#470 = ORIENTED_EDGE('',*,*,#143,.F.);
#471 = PLANE('',#472);
#472 = AXIS2_PLACEMENT_3D('',#473,#474,#475);
#473 = CARTESIAN_POINT('',(84.988979038337,6.073762153435,0.));
#474 = DIRECTION('',(-0.642787609687,0.766044443119,0.));
#475 = DIRECTION('',(-0.766044443119,-0.642787609687,0.));
#476 = ADVANCED_FACE('',(#477),#511,.T.);
#477 = FACE_BOUND('',#478,.T.);
#478 = EDGE_LOOP('',(#479,#480,#488,#496,#504,#510));
#479 = ORIENTED_EDGE('',*,*,#261,.T.);
#480 = ORIENTED_EDGE('',*,*,#481,.T.);
#481 = EDGE_CURVE('',#254,#482,#484,.T.);
#482 = VERTEX_POINT('',#483);
#483 = CARTESIAN_POINT('',(26.,-2.,55.));
#484 = LINE('',#485,#486);
#485 = CARTESIAN_POINT('',(15.,-2.,55.));
#486 = VECTOR('',#487,1.);
#487 = DIRECTION('',(1.,0.,0.));
#488 = ORIENTED_EDGE('',*,*,#489,.F.);
#489 = EDGE_CURVE('',#490,#482,#492,.T.);
#490 = VERTEX_POINT('',#491);
#491 = CARTESIAN_POINT('',(26.,-2.,30.));
#492 = LINE('',#493,#494);
#493 = CARTESIAN_POINT('',(26.,-2.,30.));
#494 = VECTOR('',#495,1.);
#495 = DIRECTION('',(0.,0.,1.));
#496 = ORIENTED_EDGE('',*,*,#497,.T.);
#497 = EDGE_CURVE('',#490,#498,#500,.T.);
#498 = VERTEX_POINT('',#499);
#499 = CARTESIAN_POINT('',(33.438297775985,-2.,30.));
#500 = LINE('',#501,#502);
#501 = CARTESIAN_POINT('',(15.,-2.,30.));
#502 = VECTOR('',#503,1.);
#503 = DIRECTION('',(1.,0.,0.));
#504 = ORIENTED_EDGE('',*,*,#505,.F.);
#505 = EDGE_CURVE('',#128,#498,#506,.T.);
#506 = LINE('',#507,#508);
#507 = CARTESIAN_POINT('',(33.438297775985,-2.,0.));
#508 = VECTOR('',#509,1.);
#509 = DIRECTION('',(0.,0.,1.));
#510 = ORIENTED_EDGE('',*,*,#127,.F.);
#511 = PLANE('',#512);
#512 = AXIS2_PLACEMENT_3D('',#513,#514,#515);
#513 = CARTESIAN_POINT('',(22.953069403369,-2.,26.233920515377));
#514 = DIRECTION('',(0.,1.,0.));
#515 = DIRECTION('',(0.,0.,1.));
#516 = ADVANCED_FACE('',(#517,#535),#570,.F.);
#517 = FACE_BOUND('',#518,.F.);
#518 = EDGE_LOOP('',(#519,#527,#533,#534));
#519 = ORIENTED_EDGE('',*,*,#520,.T.);
#520 = EDGE_CURVE('',#136,#521,#523,.T.);
#521 = VERTEX_POINT('',#522);
#522 = CARTESIAN_POINT('',(50.711423725497,-22.68852186722,30.));
#523 = LINE('',#524,#525);
#524 = CARTESIAN_POINT('',(50.711423725497,-22.68852186722,0.));
#525 = VECTOR('',#526,1.);
#526 = DIRECTION('',(0.,0.,1.));
#527 = ORIENTED_EDGE('',*,*,#528,.T.);
#528 = EDGE_CURVE('',#521,#498,#529,.T.);
#529 = LINE('',#530,#531);
#530 = CARTESIAN_POINT('',(50.711423725497,-22.68852186722,30.));
#531 = VECTOR('',#532,1.);
#532 = DIRECTION('',(-0.640899970002,0.767624405846,0.));
#533 = ORIENTED_EDGE('',*,*,#505,.F.);
#534 = ORIENTED_EDGE('',*,*,#135,.F.);
#535 = FACE_BOUND('',#536,.F.);
#536 = EDGE_LOOP('',(#537,#548,#556,#564));
#537 = ORIENTED_EDGE('',*,*,#538,.F.);
#538 = EDGE_CURVE('',#539,#541,#543,.T.);
#539 = VERTEX_POINT('',#540);
#540 = CARTESIAN_POINT('',(43.874716373435,-14.5,19.330127018922));
#541 = VERTEX_POINT('',#542);
#542 = CARTESIAN_POINT('',(48.049283812416,-19.5,19.330127018922));
#543 = ELLIPSE('',#544,6.513602175647,5.);
#544 = AXIS2_PLACEMENT_3D('',#545,#546,#547);
#545 = CARTESIAN_POINT('',(45.962000092926,-17.,15.));
#546 = DIRECTION('',(-0.767624405846,-0.640899970002,0.));
#547 = DIRECTION('',(0.640899970002,-0.767624405846,0.));
#548 = ORIENTED_EDGE('',*,*,#549,.T.);
#549 = EDGE_CURVE('',#539,#550,#552,.T.);
#550 = VERTEX_POINT('',#551);
#551 = CARTESIAN_POINT('',(45.132650635059,-16.00666419935,20.2));
#552 = LINE('',#553,#554);
#553 = CARTESIAN_POINT('',(41.197281691144,-11.29315914591,
    17.478656588567));
#554 = VECTOR('',#555,1.);
#555 = DIRECTION('',(0.58593466408,-0.701790871323,0.405179148473));
#556 = ORIENTED_EDGE('',*,*,#557,.F.);
#557 = EDGE_CURVE('',#558,#550,#560,.T.);
#558 = VERTEX_POINT('',#559);
#559 = CARTESIAN_POINT('',(46.791349550792,-17.99333580064,20.2));
#560 = LINE('',#561,#562);
#561 = CARTESIAN_POINT('',(44.275958026252,-14.98057871705,20.2));
#562 = VECTOR('',#563,1.);
#563 = DIRECTION('',(-0.640899970002,0.767624405846,0.));
#564 = ORIENTED_EDGE('',*,*,#565,.F.);
#565 = EDGE_CURVE('',#541,#558,#566,.T.);
#566 = LINE('',#567,#568);
#567 = CARTESIAN_POINT('',(47.499766637887,-18.84182740779,
    19.710123142204));
#568 = VECTOR('',#569,1.);
#569 = DIRECTION('',(-0.58593466408,0.701790871323,0.405179148473));
#570 = PLANE('',#571);
#571 = AXIS2_PLACEMENT_3D('',#572,#573,#574);
#572 = CARTESIAN_POINT('',(50.711423725497,-22.68852186722,0.));
#573 = DIRECTION('',(-0.767624405846,-0.640899970002,0.));
#574 = DIRECTION('',(-0.640899970002,0.767624405846,0.));
#575 = ADVANCED_FACE('',(#576),#595,.F.);
#576 = FACE_BOUND('',#577,.T.);
#577 = EDGE_LOOP('',(#578,#587,#593,#594));
#578 = ORIENTED_EDGE('',*,*,#579,.F.);
#579 = EDGE_CURVE('',#580,#580,#582,.T.);
#580 = VERTEX_POINT('',#581);
#581 = CARTESIAN_POINT('',(48.889719580142,35.299259458194,-2.7));
#582 = CIRCLE('',#583,2.8);
#583 = AXIS2_PLACEMENT_3D('',#584,#585,#586);
#584 = CARTESIAN_POINT('',(51.689719580142,35.299259458194,-2.7));
#585 = DIRECTION('',(0.,0.,1.));
#586 = DIRECTION('',(-1.,0.,0.));
#587 = ORIENTED_EDGE('',*,*,#588,.T.);
#588 = EDGE_CURVE('',#580,#153,#589,.T.);
#589 = LINE('',#590,#591);
#590 = CARTESIAN_POINT('',(48.889719580142,35.299259458194,-4.2));
#591 = VECTOR('',#592,1.);
#592 = DIRECTION('',(6.536120797907E-17,0.,1.));
#593 = ORIENTED_EDGE('',*,*,#152,.T.);
#594 = ORIENTED_EDGE('',*,*,#588,.F.);
#595 = CYLINDRICAL_SURFACE('',#596,2.8);
#596 = AXIS2_PLACEMENT_3D('',#597,#598,#599);
#597 = CARTESIAN_POINT('',(51.689719580142,35.299259458194,-4.2));
#598 = DIRECTION('',(0.,0.,1.));
#599 = DIRECTION('',(-1.,0.,0.));
#600 = ADVANCED_FACE('',(#601),#635,.T.);
#601 = FACE_BOUND('',#602,.T.);
#602 = EDGE_LOOP('',(#603,#604,#612,#620,#628,#634));
#603 = ORIENTED_EDGE('',*,*,#179,.F.);
#604 = ORIENTED_EDGE('',*,*,#605,.T.);
#605 = EDGE_CURVE('',#180,#606,#608,.T.);
#606 = VERTEX_POINT('',#607);
#607 = CARTESIAN_POINT('',(27.,-73.53783414169,30.));
#608 = LINE('',#609,#610);
#609 = CARTESIAN_POINT('',(27.,-73.53783414169,0.));
#610 = VECTOR('',#611,1.);
#611 = DIRECTION('',(0.,0.,1.));
#612 = ORIENTED_EDGE('',*,*,#613,.F.);
#613 = EDGE_CURVE('',#614,#606,#616,.T.);
#614 = VERTEX_POINT('',#615);
#615 = CARTESIAN_POINT('',(22.,-73.53783414169,30.));
#616 = LINE('',#617,#618);
#617 = CARTESIAN_POINT('',(15.,-73.53783414169,30.));
#618 = VECTOR('',#619,1.);
#619 = DIRECTION('',(1.,0.,0.));
#620 = ORIENTED_EDGE('',*,*,#621,.F.);
#621 = EDGE_CURVE('',#622,#614,#624,.T.);
#622 = VERTEX_POINT('',#623);
#623 = CARTESIAN_POINT('',(22.,-73.53783414169,20.2));
#624 = LINE('',#625,#626);
#625 = CARTESIAN_POINT('',(22.,-73.53783414169,20.2));
#626 = VECTOR('',#627,1.);
#627 = DIRECTION('',(0.,0.,1.));
#628 = ORIENTED_EDGE('',*,*,#629,.F.);
#629 = EDGE_CURVE('',#222,#622,#630,.T.);
#630 = LINE('',#631,#632);
#631 = CARTESIAN_POINT('',(15.,-73.53783414169,20.2));
#632 = VECTOR('',#633,1.);
#633 = DIRECTION('',(1.,0.,0.));
#634 = ORIENTED_EDGE('',*,*,#221,.T.);
#635 = PLANE('',#636);
#636 = AXIS2_PLACEMENT_3D('',#637,#638,#639);
#637 = CARTESIAN_POINT('',(21.,-73.53783414169,9.1));
#638 = DIRECTION('',(-0.,-1.,-0.));
#639 = DIRECTION('',(0.,0.,-1.));
#640 = ADVANCED_FACE('',(#641,#653),#688,.T.);
#641 = FACE_BOUND('',#642,.T.);
#642 = EDGE_LOOP('',(#643,#644,#645,#651,#652));
#643 = ORIENTED_EDGE('',*,*,#465,.F.);
#644 = ORIENTED_EDGE('',*,*,#520,.T.);
#645 = ORIENTED_EDGE('',*,*,#646,.F.);
#646 = EDGE_CURVE('',#606,#521,#647,.T.);
#647 = LINE('',#648,#649);
#648 = CARTESIAN_POINT('',(27.,-73.53783414169,30.));
#649 = VECTOR('',#650,1.);
#650 = DIRECTION('',(0.422618261741,0.906307787037,0.));
#651 = ORIENTED_EDGE('',*,*,#605,.F.);
#652 = ORIENTED_EDGE('',*,*,#187,.F.);
#653 = FACE_BOUND('',#654,.T.);
#654 = EDGE_LOOP('',(#655,#666,#674,#682));
#655 = ORIENTED_EDGE('',*,*,#656,.F.);
#656 = EDGE_CURVE('',#657,#659,#661,.T.);
#657 = VERTEX_POINT('',#658);
#658 = CARTESIAN_POINT('',(34.012257222335,-58.5,19.330127018922));
#659 = VERTEX_POINT('',#660);
#660 = CARTESIAN_POINT('',(36.34379551311,-53.5,19.330127018922));
#661 = ELLIPSE('',#662,5.516889594812,5.);
#662 = AXIS2_PLACEMENT_3D('',#663,#664,#665);
#663 = CARTESIAN_POINT('',(35.178026367722,-56.,15.));
#664 = DIRECTION('',(0.906307787037,-0.422618261741,0.));
#665 = DIRECTION('',(0.422618261741,0.906307787037,0.));
#666 = ORIENTED_EDGE('',*,*,#667,.F.);
#667 = EDGE_CURVE('',#668,#657,#670,.T.);
#668 = VERTEX_POINT('',#669);
#669 = CARTESIAN_POINT('',(34.714826276763,-56.99333580064,20.2));
#670 = LINE('',#671,#672);
#671 = CARTESIAN_POINT('',(34.393612847721,-57.68218022218,
    19.802295487792));
#672 = VECTOR('',#673,1.);
#673 = DIRECTION('',(-0.374453581815,-0.803018297612,-0.46362283029));
#674 = ORIENTED_EDGE('',*,*,#675,.F.);
#675 = EDGE_CURVE('',#676,#668,#678,.T.);
#676 = VERTEX_POINT('',#677);
#677 = CARTESIAN_POINT('',(35.641226458681,-55.00666419935,20.2));
#678 = LINE('',#679,#680);
#679 = CARTESIAN_POINT('',(35.917704990805,-54.41375407384,20.2));
#680 = VECTOR('',#681,1.);
#681 = DIRECTION('',(-0.422618261741,-0.906307787037,0.));
#682 = ORIENTED_EDGE('',*,*,#683,.T.);
#683 = EDGE_CURVE('',#676,#659,#684,.T.);
#684 = LINE('',#685,#686);
#685 = CARTESIAN_POINT('',(37.422504219951,-51.18670171296,
    17.994543630186));
#686 = VECTOR('',#687,1.);
#687 = DIRECTION('',(0.374453581815,0.803018297612,-0.46362283029));
#688 = PLANE('',#689);
#689 = AXIS2_PLACEMENT_3D('',#690,#691,#692);
#690 = CARTESIAN_POINT('',(38.855711862748,-48.11317800445,9.1));
#691 = DIRECTION('',(0.906307787037,-0.422618261741,0.));
#692 = DIRECTION('',(0.422618261741,0.906307787037,0.));
#693 = ADVANCED_FACE('',(#694),#747,.F.);
#694 = FACE_BOUND('',#695,.T.);
#695 = EDGE_LOOP('',(#696,#697,#705,#714,#722,#731,#739,#746));
#696 = ORIENTED_EDGE('',*,*,#204,.T.);
#697 = ORIENTED_EDGE('',*,*,#698,.T.);
#698 = EDGE_CURVE('',#205,#699,#701,.T.);
#699 = VERTEX_POINT('',#700);
#700 = CARTESIAN_POINT('',(40.639719580142,35.299259458194,-4.2));
#701 = LINE('',#702,#703);
#702 = CARTESIAN_POINT('',(40.639719580142,35.299259458194,-11.8));
#703 = VECTOR('',#704,1.);
#704 = DIRECTION('',(0.,0.,1.));
#705 = ORIENTED_EDGE('',*,*,#706,.F.);
#706 = EDGE_CURVE('',#707,#699,#709,.T.);
#707 = VERTEX_POINT('',#708);
#708 = CARTESIAN_POINT('',(62.739719580142,35.299264037246,-4.2));
#709 = CIRCLE('',#710,11.05);
#710 = AXIS2_PLACEMENT_3D('',#711,#712,#713);
#711 = CARTESIAN_POINT('',(51.689719580142,35.299259458194,-4.2));
#712 = DIRECTION('',(0.,0.,-1.));
#713 = DIRECTION('',(-1.,0.,0.));
#714 = ORIENTED_EDGE('',*,*,#715,.T.);
#715 = EDGE_CURVE('',#707,#716,#718,.T.);
#716 = VERTEX_POINT('',#717);
#717 = CARTESIAN_POINT('',(62.739719580142,35.299264037246,-4.4));
#718 = LINE('',#719,#720);
#719 = CARTESIAN_POINT('',(62.739719580142,35.299264037246,-4.2));
#720 = VECTOR('',#721,1.);
#721 = DIRECTION('',(0.,0.,-1.));
#722 = ORIENTED_EDGE('',*,*,#723,.F.);
#723 = EDGE_CURVE('',#724,#716,#726,.T.);
#724 = VERTEX_POINT('',#725);
#725 = CARTESIAN_POINT('',(51.689719580143,46.349264037245,-4.4));
#726 = CIRCLE('',#727,11.050005037246);
#727 = AXIS2_PLACEMENT_3D('',#728,#729,#730);
#728 = CARTESIAN_POINT('',(51.689714542897,35.299259,-4.4));
#729 = DIRECTION('',(0.,0.,-1.));
#730 = DIRECTION('',(1.,0.,0.));
#731 = ORIENTED_EDGE('',*,*,#732,.F.);
#732 = EDGE_CURVE('',#733,#724,#735,.T.);
#733 = VERTEX_POINT('',#734);
#734 = CARTESIAN_POINT('',(51.689719580143,46.349264037245,-4.2));
#735 = LINE('',#736,#737);
#736 = CARTESIAN_POINT('',(51.689719580143,46.349264037245,-4.2));
#737 = VECTOR('',#738,1.);
#738 = DIRECTION('',(0.,0.,-1.));
#739 = ORIENTED_EDGE('',*,*,#740,.F.);
#740 = EDGE_CURVE('',#699,#733,#741,.T.);
#741 = CIRCLE('',#742,11.05);
#742 = AXIS2_PLACEMENT_3D('',#743,#744,#745);
#743 = CARTESIAN_POINT('',(51.689719580142,35.299259458194,-4.2));
#744 = DIRECTION('',(0.,0.,-1.));
#745 = DIRECTION('',(-1.,0.,0.));
#746 = ORIENTED_EDGE('',*,*,#698,.F.);
#747 = CYLINDRICAL_SURFACE('',#748,11.05);
#748 = AXIS2_PLACEMENT_3D('',#749,#750,#751);
#749 = CARTESIAN_POINT('',(51.689719580142,35.299259458194,-11.8));
#750 = DIRECTION('',(0.,0.,1.));
#751 = DIRECTION('',(-1.,0.,0.));
#752 = ADVANCED_FACE('',(#753),#771,.F.);
#753 = FACE_BOUND('',#754,.F.);
#754 = EDGE_LOOP('',(#755,#763,#769,#770));
#755 = ORIENTED_EDGE('',*,*,#756,.T.);
#756 = EDGE_CURVE('',#230,#757,#759,.T.);
#757 = VERTEX_POINT('',#758);
#758 = CARTESIAN_POINT('',(22.,-22.208751,20.2));
#759 = LINE('',#760,#761);
#760 = CARTESIAN_POINT('',(15.,-22.208751,20.2));
#761 = VECTOR('',#762,1.);
#762 = DIRECTION('',(1.,0.,0.));
#763 = ORIENTED_EDGE('',*,*,#764,.T.);
#764 = EDGE_CURVE('',#757,#622,#765,.T.);
#765 = LINE('',#766,#767);
#766 = CARTESIAN_POINT('',(22.,-22.208751,20.2));
#767 = VECTOR('',#768,1.);
#768 = DIRECTION('',(0.,-1.,0.));
#769 = ORIENTED_EDGE('',*,*,#629,.F.);
#770 = ORIENTED_EDGE('',*,*,#229,.F.);
#771 = PLANE('',#772);
#772 = AXIS2_PLACEMENT_3D('',#773,#774,#775);
#773 = CARTESIAN_POINT('',(15.,-22.208751,20.2));
#774 = DIRECTION('',(0.,0.,-1.));
#775 = DIRECTION('',(0.,-1.,0.));
#776 = ADVANCED_FACE('',(#777),#795,.F.);
#777 = FACE_BOUND('',#778,.F.);
#778 = EDGE_LOOP('',(#779,#780,#788,#794));
#779 = ORIENTED_EDGE('',*,*,#237,.F.);
#780 = ORIENTED_EDGE('',*,*,#781,.T.);
#781 = EDGE_CURVE('',#238,#782,#784,.T.);
#782 = VERTEX_POINT('',#783);
#783 = CARTESIAN_POINT('',(22.,-22.208751,54.991249));
#784 = LINE('',#785,#786);
#785 = CARTESIAN_POINT('',(15.,-22.208751,54.991249));
#786 = VECTOR('',#787,1.);
#787 = DIRECTION('',(1.,0.,0.));
#788 = ORIENTED_EDGE('',*,*,#789,.T.);
#789 = EDGE_CURVE('',#782,#757,#790,.T.);
#790 = LINE('',#791,#792);
#791 = CARTESIAN_POINT('',(22.,-22.208751,55.));
#792 = VECTOR('',#793,1.);
#793 = DIRECTION('',(0.,0.,-1.));
#794 = ORIENTED_EDGE('',*,*,#756,.F.);
#795 = PLANE('',#796);
#796 = AXIS2_PLACEMENT_3D('',#797,#798,#799);
#797 = CARTESIAN_POINT('',(15.,-22.208751,55.));
#798 = DIRECTION('',(0.,1.,0.));
#799 = DIRECTION('',(0.,0.,-1.));
#800 = ADVANCED_FACE('',(#801),#835,.F.);
#801 = FACE_BOUND('',#802,.F.);
#802 = EDGE_LOOP('',(#803,#804,#812,#820,#828,#834));
#803 = ORIENTED_EDGE('',*,*,#245,.F.);
#804 = ORIENTED_EDGE('',*,*,#805,.T.);
#805 = EDGE_CURVE('',#246,#806,#808,.T.);
#806 = VERTEX_POINT('',#807);
#807 = CARTESIAN_POINT('',(26.,-22.2,55.));
#808 = LINE('',#809,#810);
#809 = CARTESIAN_POINT('',(15.,-22.2,55.));
#810 = VECTOR('',#811,1.);
#811 = DIRECTION('',(1.,0.,0.));
#812 = ORIENTED_EDGE('',*,*,#813,.T.);
#813 = EDGE_CURVE('',#806,#814,#816,.T.);
#814 = VERTEX_POINT('',#815);
#815 = CARTESIAN_POINT('',(26.,-47.2,30.));
#816 = LINE('',#817,#818);
#817 = CARTESIAN_POINT('',(26.,-22.2,55.));
#818 = VECTOR('',#819,1.);
#819 = DIRECTION('',(0.,-0.707106781187,-0.707106781187));
#820 = ORIENTED_EDGE('',*,*,#821,.F.);
#821 = EDGE_CURVE('',#822,#814,#824,.T.);
#822 = VERTEX_POINT('',#823);
#823 = CARTESIAN_POINT('',(22.,-47.2,30.));
#824 = LINE('',#825,#826);
#825 = CARTESIAN_POINT('',(15.,-47.2,30.));
#826 = VECTOR('',#827,1.);
#827 = DIRECTION('',(1.,0.,0.));
#828 = ORIENTED_EDGE('',*,*,#829,.F.);
#829 = EDGE_CURVE('',#782,#822,#830,.T.);
#830 = LINE('',#831,#832);
#831 = CARTESIAN_POINT('',(22.,-32.96832314271,44.231676857289));
#832 = VECTOR('',#833,1.);
#833 = DIRECTION('',(0.,-0.707106781187,-0.707106781187));
#834 = ORIENTED_EDGE('',*,*,#781,.F.);
#835 = PLANE('',#836);
#836 = AXIS2_PLACEMENT_3D('',#837,#838,#839);
#837 = CARTESIAN_POINT('',(15.,-22.2,55.));
#838 = DIRECTION('',(0.,0.707106781187,-0.707106781187));
#839 = DIRECTION('',(0.,-0.707106781187,-0.707106781187));
#840 = ADVANCED_FACE('',(#841),#852,.F.);
#841 = FACE_BOUND('',#842,.F.);
#842 = EDGE_LOOP('',(#843,#844,#850,#851));
#843 = ORIENTED_EDGE('',*,*,#481,.T.);
#844 = ORIENTED_EDGE('',*,*,#845,.T.);
#845 = EDGE_CURVE('',#482,#806,#846,.T.);
#846 = LINE('',#847,#848);
#847 = CARTESIAN_POINT('',(26.,-2.,55.));
#848 = VECTOR('',#849,1.);
#849 = DIRECTION('',(0.,-1.,0.));
#850 = ORIENTED_EDGE('',*,*,#805,.F.);
#851 = ORIENTED_EDGE('',*,*,#253,.F.);
#852 = PLANE('',#853);
#853 = AXIS2_PLACEMENT_3D('',#854,#855,#856);
#854 = CARTESIAN_POINT('',(15.,-2.,55.));
#855 = DIRECTION('',(0.,0.,-1.));
#856 = DIRECTION('',(0.,-1.,0.));
#857 = ADVANCED_FACE('',(#858),#885,.T.);
#858 = FACE_BOUND('',#859,.T.);
#859 = EDGE_LOOP('',(#860,#870,#878,#879));
#860 = ORIENTED_EDGE('',*,*,#861,.F.);
#861 = EDGE_CURVE('',#862,#864,#866,.T.);
#862 = VERTEX_POINT('',#863);
#863 = CARTESIAN_POINT('',(23.5,-17.,39.866025403784));
#864 = VERTEX_POINT('',#865);
#865 = CARTESIAN_POINT('',(23.5,-17.14544826719,39.95));
#866 = LINE('',#867,#868);
#867 = CARTESIAN_POINT('',(23.5,-16.8125,39.757772228311));
#868 = VECTOR('',#869,1.);
#869 = DIRECTION('',(0.,-0.866025403784,0.5));
#870 = ORIENTED_EDGE('',*,*,#871,.T.);
#871 = EDGE_CURVE('',#872,#274,#874,.T.);
#872 = VERTEX_POINT('',#873);
#873 = CARTESIAN_POINT('',(23.5,-17.,39.866025403784));
#874 = LINE('',#875,#876);
#875 = CARTESIAN_POINT('',(25.,-17.,39.866025403784));
#876 = VECTOR('',#877,1.);
#877 = DIRECTION('',(-1.,-0.,-0.));
#878 = ORIENTED_EDGE('',*,*,#271,.F.);
#879 = ORIENTED_EDGE('',*,*,#880,.F.);
#880 = EDGE_CURVE('',#864,#272,#881,.T.);
#881 = LINE('',#882,#883);
#882 = CARTESIAN_POINT('',(25.,-17.14544826719,39.95));
#883 = VECTOR('',#884,1.);
#884 = DIRECTION('',(-1.,-0.,-0.));
#885 = PLANE('',#886);
#886 = AXIS2_PLACEMENT_3D('',#887,#888,#889);
#887 = CARTESIAN_POINT('',(25.,-17.,39.866025403784));
#888 = DIRECTION('',(0.,0.5,0.866025403784));
#889 = DIRECTION('',(0.,-0.866025403784,0.5));
#890 = ADVANCED_FACE('',(#891),#909,.F.);
#891 = FACE_BOUND('',#892,.F.);
#892 = EDGE_LOOP('',(#893,#901,#907,#908));
#893 = ORIENTED_EDGE('',*,*,#894,.F.);
#894 = EDGE_CURVE('',#895,#864,#897,.T.);
#895 = VERTEX_POINT('',#896);
#896 = CARTESIAN_POINT('',(23.5,-16.85455173281,39.95));
#897 = LINE('',#898,#899);
#898 = CARTESIAN_POINT('',(23.5,-16.9272758664,39.95));
#899 = VECTOR('',#900,1.);
#900 = DIRECTION('',(0.,-1.,0.));
#901 = ORIENTED_EDGE('',*,*,#902,.T.);
#902 = EDGE_CURVE('',#895,#282,#903,.T.);
#903 = LINE('',#904,#905);
#904 = CARTESIAN_POINT('',(25.,-16.85455173281,39.95));
#905 = VECTOR('',#906,1.);
#906 = DIRECTION('',(-1.,-0.,-0.));
#907 = ORIENTED_EDGE('',*,*,#289,.F.);
#908 = ORIENTED_EDGE('',*,*,#880,.F.);
#909 = PLANE('',#910);
#910 = AXIS2_PLACEMENT_3D('',#911,#912,#913);
#911 = CARTESIAN_POINT('',(25.,-16.85455173281,39.95));
#912 = DIRECTION('',(0.,0.,1.));
#913 = DIRECTION('',(0.,-1.,0.));
#914 = ADVANCED_FACE('',(#915),#926,.F.);
#915 = FACE_BOUND('',#916,.F.);
#916 = EDGE_LOOP('',(#917,#923,#924,#925));
#917 = ORIENTED_EDGE('',*,*,#918,.F.);
#918 = EDGE_CURVE('',#862,#895,#919,.T.);
#919 = LINE('',#920,#921);
#920 = CARTESIAN_POINT('',(23.5,-17.1875,39.757772228311));
#921 = VECTOR('',#922,1.);
#922 = DIRECTION('',(0.,0.866025403784,0.5));
#923 = ORIENTED_EDGE('',*,*,#871,.T.);
#924 = ORIENTED_EDGE('',*,*,#281,.F.);
#925 = ORIENTED_EDGE('',*,*,#902,.F.);
#926 = PLANE('',#927);
#927 = AXIS2_PLACEMENT_3D('',#928,#929,#930);
#928 = CARTESIAN_POINT('',(25.,-17.,39.866025403784));
#929 = DIRECTION('',(0.,0.5,-0.866025403784));
#930 = DIRECTION('',(0.,0.866025403784,0.5));
#931 = ADVANCED_FACE('',(#932),#968,.F.);
#932 = FACE_BOUND('',#933,.T.);
#933 = EDGE_LOOP('',(#934,#945,#951,#952,#953,#961));
#934 = ORIENTED_EDGE('',*,*,#935,.T.);
#935 = EDGE_CURVE('',#936,#938,#940,.T.);
#936 = VERTEX_POINT('',#937);
#937 = CARTESIAN_POINT('',(23.5,-17.,38.25));
#938 = VERTEX_POINT('',#939);
#939 = CARTESIAN_POINT('',(23.5,-16.625,39.649519052838));
#940 = CIRCLE('',#941,0.75);
#941 = AXIS2_PLACEMENT_3D('',#942,#943,#944);
#942 = CARTESIAN_POINT('',(23.5,-17.,39.));
#943 = DIRECTION('',(1.,-0.,0.));
#944 = DIRECTION('',(0.,0.,-1.));
#945 = ORIENTED_EDGE('',*,*,#946,.T.);
#946 = EDGE_CURVE('',#938,#309,#947,.T.);
#947 = LINE('',#948,#949);
#948 = CARTESIAN_POINT('',(25.,-16.625,39.649519052838));
#949 = VECTOR('',#950,1.);
#950 = DIRECTION('',(-1.,-0.,-0.));
#951 = ORIENTED_EDGE('',*,*,#308,.T.);
#952 = ORIENTED_EDGE('',*,*,#297,.T.);
#953 = ORIENTED_EDGE('',*,*,#954,.F.);
#954 = EDGE_CURVE('',#955,#300,#957,.T.);
#955 = VERTEX_POINT('',#956);
#956 = CARTESIAN_POINT('',(23.5,-17.375,39.649519052838));
#957 = LINE('',#958,#959);
#958 = CARTESIAN_POINT('',(25.,-17.375,39.649519052838));
#959 = VECTOR('',#960,1.);
#960 = DIRECTION('',(-1.,-0.,-0.));
#961 = ORIENTED_EDGE('',*,*,#962,.T.);
#962 = EDGE_CURVE('',#955,#936,#963,.T.);
#963 = CIRCLE('',#964,0.75);
#964 = AXIS2_PLACEMENT_3D('',#965,#966,#967);
#965 = CARTESIAN_POINT('',(23.5,-17.,39.));
#966 = DIRECTION('',(1.,-0.,0.));
#967 = DIRECTION('',(0.,0.,-1.));
#968 = CYLINDRICAL_SURFACE('',#969,0.75);
#969 = AXIS2_PLACEMENT_3D('',#970,#971,#972);
#970 = CARTESIAN_POINT('',(23.5,-17.,39.));
#971 = DIRECTION('',(-1.,-0.,-0.));
#972 = DIRECTION('',(0.,0.,-1.));
#973 = ADVANCED_FACE('',(#974),#985,.T.);
#974 = FACE_BOUND('',#975,.T.);
#975 = EDGE_LOOP('',(#976,#982,#983,#984));
#976 = ORIENTED_EDGE('',*,*,#977,.F.);
#977 = EDGE_CURVE('',#955,#872,#978,.T.);
#978 = LINE('',#979,#980);
#979 = CARTESIAN_POINT('',(23.5,-17.375,39.649519052838));
#980 = VECTOR('',#981,1.);
#981 = DIRECTION('',(0.,0.866025403784,0.5));
#982 = ORIENTED_EDGE('',*,*,#954,.T.);
#983 = ORIENTED_EDGE('',*,*,#325,.F.);
#984 = ORIENTED_EDGE('',*,*,#871,.F.);
#985 = PLANE('',#986);
#986 = AXIS2_PLACEMENT_3D('',#987,#988,#989);
#987 = CARTESIAN_POINT('',(25.,-17.375,39.649519052838));
#988 = DIRECTION('',(0.,0.5,-0.866025403784));
#989 = DIRECTION('',(0.,0.866025403784,0.5));
#990 = ADVANCED_FACE('',(#991),#1002,.F.);
#991 = FACE_BOUND('',#992,.F.);
#992 = EDGE_LOOP('',(#993,#999,#1000,#1001));
#993 = ORIENTED_EDGE('',*,*,#994,.F.);
#994 = EDGE_CURVE('',#938,#872,#995,.T.);
#995 = LINE('',#996,#997);
#996 = CARTESIAN_POINT('',(23.5,-16.625,39.649519052838));
#997 = VECTOR('',#998,1.);
#998 = DIRECTION('',(0.,-0.866025403784,0.5));
#999 = ORIENTED_EDGE('',*,*,#946,.T.);
#1000 = ORIENTED_EDGE('',*,*,#317,.F.);
#1001 = ORIENTED_EDGE('',*,*,#871,.F.);
#1002 = PLANE('',#1003);
#1003 = AXIS2_PLACEMENT_3D('',#1004,#1005,#1006);
#1004 = CARTESIAN_POINT('',(25.,-16.625,39.649519052838));
#1005 = DIRECTION('',(0.,0.5,0.866025403784));
#1006 = DIRECTION('',(0.,-0.866025403784,0.5));
#1007 = ADVANCED_FACE('',(#1008),#1035,.T.);
#1008 = FACE_BOUND('',#1009,.T.);
#1009 = EDGE_LOOP('',(#1010,#1020,#1028,#1029));
#1010 = ORIENTED_EDGE('',*,*,#1011,.F.);
#1011 = EDGE_CURVE('',#1012,#1014,#1016,.T.);
#1012 = VERTEX_POINT('',#1013);
#1013 = CARTESIAN_POINT('',(23.5,-17.,15.866025403784));
#1014 = VERTEX_POINT('',#1015);
#1015 = CARTESIAN_POINT('',(23.5,-17.14544826719,15.95));
#1016 = LINE('',#1017,#1018);
#1017 = CARTESIAN_POINT('',(23.5,-16.8125,15.757772228311));
#1018 = VECTOR('',#1019,1.);
#1019 = DIRECTION('',(0.,-0.866025403784,0.5));
#1020 = ORIENTED_EDGE('',*,*,#1021,.T.);
#1021 = EDGE_CURVE('',#1022,#336,#1024,.T.);
#1022 = VERTEX_POINT('',#1023);
#1023 = CARTESIAN_POINT('',(23.5,-17.,15.866025403784));
#1024 = LINE('',#1025,#1026);
#1025 = CARTESIAN_POINT('',(25.,-17.,15.866025403784));
#1026 = VECTOR('',#1027,1.);
#1027 = DIRECTION('',(-1.,-0.,-0.));
#1028 = ORIENTED_EDGE('',*,*,#333,.F.);
#1029 = ORIENTED_EDGE('',*,*,#1030,.F.);
#1030 = EDGE_CURVE('',#1014,#334,#1031,.T.);
#1031 = LINE('',#1032,#1033);
#1032 = CARTESIAN_POINT('',(25.,-17.14544826719,15.95));
#1033 = VECTOR('',#1034,1.);
#1034 = DIRECTION('',(-1.,-0.,-0.));
#1035 = PLANE('',#1036);
#1036 = AXIS2_PLACEMENT_3D('',#1037,#1038,#1039);
#1037 = CARTESIAN_POINT('',(25.,-17.,15.866025403784));
#1038 = DIRECTION('',(0.,0.5,0.866025403784));
#1039 = DIRECTION('',(0.,-0.866025403784,0.5));
#1040 = ADVANCED_FACE('',(#1041),#1059,.F.);
#1041 = FACE_BOUND('',#1042,.F.);
#1042 = EDGE_LOOP('',(#1043,#1051,#1057,#1058));
#1043 = ORIENTED_EDGE('',*,*,#1044,.F.);
#1044 = EDGE_CURVE('',#1045,#1014,#1047,.T.);
#1045 = VERTEX_POINT('',#1046);
#1046 = CARTESIAN_POINT('',(23.5,-16.8545517328,15.95));
#1047 = LINE('',#1048,#1049);
#1048 = CARTESIAN_POINT('',(23.5,-16.9272758664,15.95));
#1049 = VECTOR('',#1050,1.);
#1050 = DIRECTION('',(0.,-1.,0.));
#1051 = ORIENTED_EDGE('',*,*,#1052,.T.);
#1052 = EDGE_CURVE('',#1045,#344,#1053,.T.);
#1053 = LINE('',#1054,#1055);
#1054 = CARTESIAN_POINT('',(25.,-16.8545517328,15.95));
#1055 = VECTOR('',#1056,1.);
#1056 = DIRECTION('',(-1.,-0.,-0.));
#1057 = ORIENTED_EDGE('',*,*,#351,.F.);
#1058 = ORIENTED_EDGE('',*,*,#1030,.F.);
#1059 = PLANE('',#1060);
#1060 = AXIS2_PLACEMENT_3D('',#1061,#1062,#1063);
#1061 = CARTESIAN_POINT('',(25.,-16.8545517328,15.95));
#1062 = DIRECTION('',(0.,0.,1.));
#1063 = DIRECTION('',(0.,-1.,0.));
#1064 = ADVANCED_FACE('',(#1065),#1076,.F.);
#1065 = FACE_BOUND('',#1066,.F.);
#1066 = EDGE_LOOP('',(#1067,#1073,#1074,#1075));
#1067 = ORIENTED_EDGE('',*,*,#1068,.F.);
#1068 = EDGE_CURVE('',#1012,#1045,#1069,.T.);
#1069 = LINE('',#1070,#1071);
#1070 = CARTESIAN_POINT('',(23.5,-17.1875,15.757772228311));
#1071 = VECTOR('',#1072,1.);
#1072 = DIRECTION('',(0.,0.866025403784,0.5));
#1073 = ORIENTED_EDGE('',*,*,#1021,.T.);
#1074 = ORIENTED_EDGE('',*,*,#343,.F.);
#1075 = ORIENTED_EDGE('',*,*,#1052,.F.);
#1076 = PLANE('',#1077);
#1077 = AXIS2_PLACEMENT_3D('',#1078,#1079,#1080);
#1078 = CARTESIAN_POINT('',(25.,-17.,15.866025403784));
#1079 = DIRECTION('',(0.,0.5,-0.866025403784));
#1080 = DIRECTION('',(0.,0.866025403784,0.5));
#1081 = ADVANCED_FACE('',(#1082),#1118,.F.);
#1082 = FACE_BOUND('',#1083,.T.);
#1083 = EDGE_LOOP('',(#1084,#1095,#1101,#1102,#1103,#1111));
#1084 = ORIENTED_EDGE('',*,*,#1085,.T.);
#1085 = EDGE_CURVE('',#1086,#1088,#1090,.T.);
#1086 = VERTEX_POINT('',#1087);
#1087 = CARTESIAN_POINT('',(23.5,-17.,14.25));
#1088 = VERTEX_POINT('',#1089);
#1089 = CARTESIAN_POINT('',(23.5,-16.625,15.649519052838));
#1090 = CIRCLE('',#1091,0.75);
#1091 = AXIS2_PLACEMENT_3D('',#1092,#1093,#1094);
#1092 = CARTESIAN_POINT('',(23.5,-17.,15.));
#1093 = DIRECTION('',(1.,-0.,0.));
#1094 = DIRECTION('',(0.,0.,-1.));
#1095 = ORIENTED_EDGE('',*,*,#1096,.T.);
#1096 = EDGE_CURVE('',#1088,#371,#1097,.T.);
#1097 = LINE('',#1098,#1099);
#1098 = CARTESIAN_POINT('',(25.,-16.625,15.649519052838));
#1099 = VECTOR('',#1100,1.);
#1100 = DIRECTION('',(-1.,-0.,-0.));
#1101 = ORIENTED_EDGE('',*,*,#370,.T.);
#1102 = ORIENTED_EDGE('',*,*,#359,.T.);
#1103 = ORIENTED_EDGE('',*,*,#1104,.F.);
#1104 = EDGE_CURVE('',#1105,#362,#1107,.T.);
#1105 = VERTEX_POINT('',#1106);
#1106 = CARTESIAN_POINT('',(23.5,-17.375,15.649519052838));
#1107 = LINE('',#1108,#1109);
#1108 = CARTESIAN_POINT('',(25.,-17.375,15.649519052838));
#1109 = VECTOR('',#1110,1.);
#1110 = DIRECTION('',(-1.,-0.,-0.));
#1111 = ORIENTED_EDGE('',*,*,#1112,.T.);
#1112 = EDGE_CURVE('',#1105,#1086,#1113,.T.);
#1113 = CIRCLE('',#1114,0.75);
#1114 = AXIS2_PLACEMENT_3D('',#1115,#1116,#1117);
#1115 = CARTESIAN_POINT('',(23.5,-17.,15.));
#1116 = DIRECTION('',(1.,-0.,0.));
#1117 = DIRECTION('',(0.,0.,-1.));
#1118 = CYLINDRICAL_SURFACE('',#1119,0.75);
#1119 = AXIS2_PLACEMENT_3D('',#1120,#1121,#1122);
#1120 = CARTESIAN_POINT('',(23.5,-17.,15.));
#1121 = DIRECTION('',(-1.,-0.,-0.));
#1122 = DIRECTION('',(0.,0.,-1.));
#1123 = ADVANCED_FACE('',(#1124),#1135,.T.);
#1124 = FACE_BOUND('',#1125,.T.);
#1125 = EDGE_LOOP('',(#1126,#1132,#1133,#1134));
#1126 = ORIENTED_EDGE('',*,*,#1127,.F.);
#1127 = EDGE_CURVE('',#1105,#1022,#1128,.T.);
#1128 = LINE('',#1129,#1130);
#1129 = CARTESIAN_POINT('',(23.5,-17.375,15.649519052838));
#1130 = VECTOR('',#1131,1.);
#1131 = DIRECTION('',(0.,0.866025403784,0.5));
#1132 = ORIENTED_EDGE('',*,*,#1104,.T.);
#1133 = ORIENTED_EDGE('',*,*,#387,.F.);
#1134 = ORIENTED_EDGE('',*,*,#1021,.F.);
#1135 = PLANE('',#1136);
#1136 = AXIS2_PLACEMENT_3D('',#1137,#1138,#1139);
#1137 = CARTESIAN_POINT('',(25.,-17.375,15.649519052838));
#1138 = DIRECTION('',(0.,0.5,-0.866025403784));
#1139 = DIRECTION('',(0.,0.866025403784,0.5));
#1140 = ADVANCED_FACE('',(#1141),#1152,.F.);
#1141 = FACE_BOUND('',#1142,.F.);
#1142 = EDGE_LOOP('',(#1143,#1149,#1150,#1151));
#1143 = ORIENTED_EDGE('',*,*,#1144,.F.);
#1144 = EDGE_CURVE('',#1088,#1022,#1145,.T.);
#1145 = LINE('',#1146,#1147);
#1146 = CARTESIAN_POINT('',(23.5,-16.625,15.649519052838));
#1147 = VECTOR('',#1148,1.);
#1148 = DIRECTION('',(0.,-0.866025403784,0.5));
#1149 = ORIENTED_EDGE('',*,*,#1096,.T.);
#1150 = ORIENTED_EDGE('',*,*,#379,.F.);
#1151 = ORIENTED_EDGE('',*,*,#1021,.F.);
#1152 = PLANE('',#1153);
#1153 = AXIS2_PLACEMENT_3D('',#1154,#1155,#1156);
#1154 = CARTESIAN_POINT('',(25.,-16.625,15.649519052838));
#1155 = DIRECTION('',(0.,0.5,0.866025403784));
#1156 = DIRECTION('',(0.,-0.866025403784,0.5));
#1157 = ADVANCED_FACE('',(#1158),#1185,.T.);
#1158 = FACE_BOUND('',#1159,.T.);
#1159 = EDGE_LOOP('',(#1160,#1170,#1178,#1179));
#1160 = ORIENTED_EDGE('',*,*,#1161,.F.);
#1161 = EDGE_CURVE('',#1162,#1164,#1166,.T.);
#1162 = VERTEX_POINT('',#1163);
#1163 = CARTESIAN_POINT('',(23.5,-56.,15.866025403784));
#1164 = VERTEX_POINT('',#1165);
#1165 = CARTESIAN_POINT('',(23.5,-56.14544826719,15.95));
#1166 = LINE('',#1167,#1168);
#1167 = CARTESIAN_POINT('',(23.5,-55.8125,15.757772228311));
#1168 = VECTOR('',#1169,1.);
#1169 = DIRECTION('',(0.,-0.866025403784,0.5));
#1170 = ORIENTED_EDGE('',*,*,#1171,.T.);
#1171 = EDGE_CURVE('',#1172,#398,#1174,.T.);
#1172 = VERTEX_POINT('',#1173);
#1173 = CARTESIAN_POINT('',(23.5,-56.,15.866025403784));
#1174 = LINE('',#1175,#1176);
#1175 = CARTESIAN_POINT('',(25.,-56.,15.866025403784));
#1176 = VECTOR('',#1177,1.);
#1177 = DIRECTION('',(-1.,-0.,-0.));
#1178 = ORIENTED_EDGE('',*,*,#395,.F.);
#1179 = ORIENTED_EDGE('',*,*,#1180,.F.);
#1180 = EDGE_CURVE('',#1164,#396,#1181,.T.);
#1181 = LINE('',#1182,#1183);
#1182 = CARTESIAN_POINT('',(25.,-56.14544826719,15.95));
#1183 = VECTOR('',#1184,1.);
#1184 = DIRECTION('',(-1.,-0.,-0.));
#1185 = PLANE('',#1186);
#1186 = AXIS2_PLACEMENT_3D('',#1187,#1188,#1189);
#1187 = CARTESIAN_POINT('',(25.,-56.,15.866025403784));
#1188 = DIRECTION('',(0.,0.5,0.866025403784));
#1189 = DIRECTION('',(0.,-0.866025403784,0.5));
#1190 = ADVANCED_FACE('',(#1191),#1209,.F.);
#1191 = FACE_BOUND('',#1192,.F.);
#1192 = EDGE_LOOP('',(#1193,#1201,#1207,#1208));
#1193 = ORIENTED_EDGE('',*,*,#1194,.F.);
#1194 = EDGE_CURVE('',#1195,#1164,#1197,.T.);
#1195 = VERTEX_POINT('',#1196);
#1196 = CARTESIAN_POINT('',(23.5,-55.8545517328,15.95));
#1197 = LINE('',#1198,#1199);
#1198 = CARTESIAN_POINT('',(23.5,-55.9272758664,15.95));
#1199 = VECTOR('',#1200,1.);
#1200 = DIRECTION('',(0.,-1.,0.));
#1201 = ORIENTED_EDGE('',*,*,#1202,.T.);
#1202 = EDGE_CURVE('',#1195,#406,#1203,.T.);
#1203 = LINE('',#1204,#1205);
#1204 = CARTESIAN_POINT('',(25.,-55.8545517328,15.95));
#1205 = VECTOR('',#1206,1.);
#1206 = DIRECTION('',(-1.,-0.,-0.));
#1207 = ORIENTED_EDGE('',*,*,#413,.F.);
#1208 = ORIENTED_EDGE('',*,*,#1180,.F.);
#1209 = PLANE('',#1210);
#1210 = AXIS2_PLACEMENT_3D('',#1211,#1212,#1213);
#1211 = CARTESIAN_POINT('',(25.,-55.8545517328,15.95));
#1212 = DIRECTION('',(0.,0.,1.));
#1213 = DIRECTION('',(0.,-1.,0.));
#1214 = ADVANCED_FACE('',(#1215),#1226,.F.);
#1215 = FACE_BOUND('',#1216,.F.);
#1216 = EDGE_LOOP('',(#1217,#1223,#1224,#1225));
#1217 = ORIENTED_EDGE('',*,*,#1218,.F.);
#1218 = EDGE_CURVE('',#1162,#1195,#1219,.T.);
#1219 = LINE('',#1220,#1221);
#1220 = CARTESIAN_POINT('',(23.5,-56.1875,15.757772228311));
#1221 = VECTOR('',#1222,1.);
#1222 = DIRECTION('',(0.,0.866025403784,0.5));
#1223 = ORIENTED_EDGE('',*,*,#1171,.T.);
#1224 = ORIENTED_EDGE('',*,*,#405,.F.);
#1225 = ORIENTED_EDGE('',*,*,#1202,.F.);
#1226 = PLANE('',#1227);
#1227 = AXIS2_PLACEMENT_3D('',#1228,#1229,#1230);
#1228 = CARTESIAN_POINT('',(25.,-56.,15.866025403784));
#1229 = DIRECTION('',(0.,0.5,-0.866025403784));
#1230 = DIRECTION('',(0.,0.866025403784,0.5));
#1231 = ADVANCED_FACE('',(#1232),#1268,.F.);
#1232 = FACE_BOUND('',#1233,.T.);
#1233 = EDGE_LOOP('',(#1234,#1245,#1251,#1252,#1253,#1261));
#1234 = ORIENTED_EDGE('',*,*,#1235,.T.);
#1235 = EDGE_CURVE('',#1236,#1238,#1240,.T.);
#1236 = VERTEX_POINT('',#1237);
#1237 = CARTESIAN_POINT('',(23.5,-56.,14.25));
#1238 = VERTEX_POINT('',#1239);
#1239 = CARTESIAN_POINT('',(23.5,-55.625,15.649519052838));
#1240 = CIRCLE('',#1241,0.75);
#1241 = AXIS2_PLACEMENT_3D('',#1242,#1243,#1244);
#1242 = CARTESIAN_POINT('',(23.5,-56.,15.));
#1243 = DIRECTION('',(1.,-0.,0.));
#1244 = DIRECTION('',(0.,0.,-1.));
#1245 = ORIENTED_EDGE('',*,*,#1246,.T.);
#1246 = EDGE_CURVE('',#1238,#433,#1247,.T.);
#1247 = LINE('',#1248,#1249);
#1248 = CARTESIAN_POINT('',(25.,-55.625,15.649519052838));
#1249 = VECTOR('',#1250,1.);
#1250 = DIRECTION('',(-1.,-0.,-0.));
#1251 = ORIENTED_EDGE('',*,*,#432,.T.);
#1252 = ORIENTED_EDGE('',*,*,#421,.T.);
#1253 = ORIENTED_EDGE('',*,*,#1254,.F.);
#1254 = EDGE_CURVE('',#1255,#424,#1257,.T.);
#1255 = VERTEX_POINT('',#1256);
#1256 = CARTESIAN_POINT('',(23.5,-56.375,15.649519052838));
#1257 = LINE('',#1258,#1259);
#1258 = CARTESIAN_POINT('',(25.,-56.375,15.649519052838));
#1259 = VECTOR('',#1260,1.);
#1260 = DIRECTION('',(-1.,-0.,-0.));
#1261 = ORIENTED_EDGE('',*,*,#1262,.T.);
#1262 = EDGE_CURVE('',#1255,#1236,#1263,.T.);
#1263 = CIRCLE('',#1264,0.75);
#1264 = AXIS2_PLACEMENT_3D('',#1265,#1266,#1267);
#1265 = CARTESIAN_POINT('',(23.5,-56.,15.));
#1266 = DIRECTION('',(1.,-0.,0.));
#1267 = DIRECTION('',(0.,0.,-1.));
#1268 = CYLINDRICAL_SURFACE('',#1269,0.75);
#1269 = AXIS2_PLACEMENT_3D('',#1270,#1271,#1272);
#1270 = CARTESIAN_POINT('',(23.5,-56.,15.));
#1271 = DIRECTION('',(-1.,-0.,-0.));
#1272 = DIRECTION('',(0.,0.,-1.));
#1273 = ADVANCED_FACE('',(#1274),#1285,.T.);
#1274 = FACE_BOUND('',#1275,.T.);
#1275 = EDGE_LOOP('',(#1276,#1282,#1283,#1284));
#1276 = ORIENTED_EDGE('',*,*,#1277,.F.);
#1277 = EDGE_CURVE('',#1255,#1172,#1278,.T.);
#1278 = LINE('',#1279,#1280);
#1279 = CARTESIAN_POINT('',(23.5,-56.375,15.649519052838));
#1280 = VECTOR('',#1281,1.);
#1281 = DIRECTION('',(0.,0.866025403784,0.5));
#1282 = ORIENTED_EDGE('',*,*,#1254,.T.);
#1283 = ORIENTED_EDGE('',*,*,#449,.F.);
#1284 = ORIENTED_EDGE('',*,*,#1171,.F.);
#1285 = PLANE('',#1286);
#1286 = AXIS2_PLACEMENT_3D('',#1287,#1288,#1289);
#1287 = CARTESIAN_POINT('',(25.,-56.375,15.649519052838));
#1288 = DIRECTION('',(0.,0.5,-0.866025403784));
#1289 = DIRECTION('',(0.,0.866025403784,0.5));
#1290 = ADVANCED_FACE('',(#1291),#1302,.F.);
#1291 = FACE_BOUND('',#1292,.F.);
#1292 = EDGE_LOOP('',(#1293,#1299,#1300,#1301));
#1293 = ORIENTED_EDGE('',*,*,#1294,.F.);
#1294 = EDGE_CURVE('',#1238,#1172,#1295,.T.);
#1295 = LINE('',#1296,#1297);
#1296 = CARTESIAN_POINT('',(23.5,-55.625,15.649519052838));
#1297 = VECTOR('',#1298,1.);
#1298 = DIRECTION('',(0.,-0.866025403784,0.5));
#1299 = ORIENTED_EDGE('',*,*,#1246,.T.);
#1300 = ORIENTED_EDGE('',*,*,#441,.F.);
#1301 = ORIENTED_EDGE('',*,*,#1171,.F.);
#1302 = PLANE('',#1303);
#1303 = AXIS2_PLACEMENT_3D('',#1304,#1305,#1306);
#1304 = CARTESIAN_POINT('',(25.,-55.625,15.649519052838));
#1305 = DIRECTION('',(0.,0.5,0.866025403784));
#1306 = DIRECTION('',(0.,-0.866025403784,0.5));
#1307 = ADVANCED_FACE('',(#1308,#1319),#1354,.T.);
#1308 = FACE_BOUND('',#1309,.T.);
#1309 = EDGE_LOOP('',(#1310,#1316,#1317,#1318));
#1310 = ORIENTED_EDGE('',*,*,#1311,.F.);
#1311 = EDGE_CURVE('',#490,#814,#1312,.T.);
#1312 = LINE('',#1313,#1314);
#1313 = CARTESIAN_POINT('',(26.,-2.,30.));
#1314 = VECTOR('',#1315,1.);
#1315 = DIRECTION('',(0.,-1.,0.));
#1316 = ORIENTED_EDGE('',*,*,#489,.T.);
#1317 = ORIENTED_EDGE('',*,*,#845,.T.);
#1318 = ORIENTED_EDGE('',*,*,#813,.T.);
#1319 = FACE_BOUND('',#1320,.T.);
#1320 = EDGE_LOOP('',(#1321,#1332,#1340,#1348));
#1321 = ORIENTED_EDGE('',*,*,#1322,.F.);
#1322 = EDGE_CURVE('',#1323,#1325,#1327,.T.);
#1323 = VERTEX_POINT('',#1324);
#1324 = CARTESIAN_POINT('',(26.,-19.5,43.33012701892));
#1325 = VERTEX_POINT('',#1326);
#1326 = CARTESIAN_POINT('',(26.,-14.5,43.330127018924));
#1327 = CIRCLE('',#1328,5.);
#1328 = AXIS2_PLACEMENT_3D('',#1329,#1330,#1331);
#1329 = CARTESIAN_POINT('',(26.,-17.,39.));
#1330 = DIRECTION('',(1.,0.,-0.));
#1331 = DIRECTION('',(0.,0.,1.));
#1332 = ORIENTED_EDGE('',*,*,#1333,.F.);
#1333 = EDGE_CURVE('',#1334,#1323,#1336,.T.);
#1334 = VERTEX_POINT('',#1335);
#1335 = CARTESIAN_POINT('',(26.,-17.99333580064,44.2));
#1336 = LINE('',#1337,#1338);
#1337 = CARTESIAN_POINT('',(26.,-20.75730561707,42.604221282449));
#1338 = VECTOR('',#1339,1.);
#1339 = DIRECTION('',(0.,-0.866025403784,-0.500000000001));
#1340 = ORIENTED_EDGE('',*,*,#1341,.F.);
#1341 = EDGE_CURVE('',#1342,#1334,#1344,.T.);
#1342 = VERTEX_POINT('',#1343);
#1343 = CARTESIAN_POINT('',(26.,-16.00666419935,44.2));
#1344 = LINE('',#1345,#1346);
#1345 = CARTESIAN_POINT('',(26.,-19.46608528273,44.2));
#1346 = VECTOR('',#1347,1.);
#1347 = DIRECTION('',(0.,-1.,0.));
#1348 = ORIENTED_EDGE('',*,*,#1349,.T.);
#1349 = EDGE_CURVE('',#1342,#1325,#1350,.T.);
#1350 = LINE('',#1351,#1352);
#1351 = CARTESIAN_POINT('',(26.,-16.19682045655,44.309786766281));
#1352 = VECTOR('',#1353,1.);
#1353 = DIRECTION('',(0.,0.866025403784,-0.500000000001));
#1354 = PLANE('',#1355);
#1355 = AXIS2_PLACEMENT_3D('',#1356,#1357,#1358);
#1356 = CARTESIAN_POINT('',(26.,-20.93883476483,40.015016043553));
#1357 = DIRECTION('',(1.,0.,0.));
#1358 = DIRECTION('',(0.,0.,1.));
#1359 = ADVANCED_FACE('',(#1360),#1374,.T.);
#1360 = FACE_BOUND('',#1361,.T.);
#1361 = EDGE_LOOP('',(#1362,#1363,#1364,#1365,#1371,#1372,#1373));
#1362 = ORIENTED_EDGE('',*,*,#497,.F.);
#1363 = ORIENTED_EDGE('',*,*,#1311,.T.);
#1364 = ORIENTED_EDGE('',*,*,#821,.F.);
#1365 = ORIENTED_EDGE('',*,*,#1366,.F.);
#1366 = EDGE_CURVE('',#614,#822,#1367,.T.);
#1367 = LINE('',#1368,#1369);
#1368 = CARTESIAN_POINT('',(22.,-41.91547202004,30.));
#1369 = VECTOR('',#1370,1.);
#1370 = DIRECTION('',(0.,1.,0.));
#1371 = ORIENTED_EDGE('',*,*,#613,.T.);
#1372 = ORIENTED_EDGE('',*,*,#646,.T.);
#1373 = ORIENTED_EDGE('',*,*,#528,.T.);
#1374 = PLANE('',#1375);
#1375 = AXIS2_PLACEMENT_3D('',#1376,#1377,#1378);
#1376 = CARTESIAN_POINT('',(27.484974343822,-35.95765146923,30.));
#1377 = DIRECTION('',(0.,0.,1.));
#1378 = DIRECTION('',(1.,0.,0.));
#1379 = ADVANCED_FACE('',(#1380),#1406,.F.);
#1380 = FACE_BOUND('',#1381,.T.);
#1381 = EDGE_LOOP('',(#1382,#1390,#1399,#1405));
#1382 = ORIENTED_EDGE('',*,*,#1383,.F.);
#1383 = EDGE_CURVE('',#1384,#539,#1386,.T.);
#1384 = VERTEX_POINT('',#1385);
#1385 = CARTESIAN_POINT('',(25.,-14.5,19.330127018922));
#1386 = LINE('',#1387,#1388);
#1387 = CARTESIAN_POINT('',(25.,-14.5,19.330127018922));
#1388 = VECTOR('',#1389,1.);
#1389 = DIRECTION('',(1.,0.,0.));
#1390 = ORIENTED_EDGE('',*,*,#1391,.T.);
#1391 = EDGE_CURVE('',#1384,#1392,#1394,.T.);
#1392 = VERTEX_POINT('',#1393);
#1393 = CARTESIAN_POINT('',(25.,-19.5,19.330127018922));
#1394 = CIRCLE('',#1395,5.);
#1395 = AXIS2_PLACEMENT_3D('',#1396,#1397,#1398);
#1396 = CARTESIAN_POINT('',(25.,-17.,15.));
#1397 = DIRECTION('',(-1.,0.,0.));
#1398 = DIRECTION('',(0.,0.,1.));
#1399 = ORIENTED_EDGE('',*,*,#1400,.T.);
#1400 = EDGE_CURVE('',#1392,#541,#1401,.T.);
#1401 = LINE('',#1402,#1403);
#1402 = CARTESIAN_POINT('',(25.,-19.5,19.330127018922));
#1403 = VECTOR('',#1404,1.);
#1404 = DIRECTION('',(1.,0.,0.));
#1405 = ORIENTED_EDGE('',*,*,#538,.F.);
#1406 = CYLINDRICAL_SURFACE('',#1407,5.);
#1407 = AXIS2_PLACEMENT_3D('',#1408,#1409,#1410);
#1408 = CARTESIAN_POINT('',(25.,-17.,15.));
#1409 = DIRECTION('',(1.,0.,0.));
#1410 = DIRECTION('',(0.,0.,1.));
#1411 = ADVANCED_FACE('',(#1412),#1430,.F.);
#1412 = FACE_BOUND('',#1413,.F.);
#1413 = EDGE_LOOP('',(#1414,#1422,#1423,#1424));
#1414 = ORIENTED_EDGE('',*,*,#1415,.F.);
#1415 = EDGE_CURVE('',#1392,#1416,#1418,.T.);
#1416 = VERTEX_POINT('',#1417);
#1417 = CARTESIAN_POINT('',(25.,-17.99333580064,20.2));
#1418 = LINE('',#1419,#1420);
#1419 = CARTESIAN_POINT('',(25.,-19.5,19.330127018922));
#1420 = VECTOR('',#1421,1.);
#1421 = DIRECTION('',(0.,0.866025403784,0.5));
#1422 = ORIENTED_EDGE('',*,*,#1400,.T.);
#1423 = ORIENTED_EDGE('',*,*,#565,.T.);
#1424 = ORIENTED_EDGE('',*,*,#1425,.F.);
#1425 = EDGE_CURVE('',#1416,#558,#1426,.T.);
#1426 = LINE('',#1427,#1428);
#1427 = CARTESIAN_POINT('',(25.,-17.99333580064,20.2));
#1428 = VECTOR('',#1429,1.);
#1429 = DIRECTION('',(1.,0.,0.));
#1430 = PLANE('',#1431);
#1431 = AXIS2_PLACEMENT_3D('',#1432,#1433,#1434);
#1432 = CARTESIAN_POINT('',(25.,-19.5,19.330127018922));
#1433 = DIRECTION('',(0.,-0.5,0.866025403784));
#1434 = DIRECTION('',(0.,0.866025403784,0.5));
#1435 = ADVANCED_FACE('',(#1436),#1454,.F.);
#1436 = FACE_BOUND('',#1437,.F.);
#1437 = EDGE_LOOP('',(#1438,#1446,#1447,#1448));
#1438 = ORIENTED_EDGE('',*,*,#1439,.F.);
#1439 = EDGE_CURVE('',#1416,#1440,#1442,.T.);
#1440 = VERTEX_POINT('',#1441);
#1441 = CARTESIAN_POINT('',(25.,-16.00666419935,20.2));
#1442 = LINE('',#1443,#1444);
#1443 = CARTESIAN_POINT('',(25.,-17.99333580064,20.2));
#1444 = VECTOR('',#1445,1.);
#1445 = DIRECTION('',(0.,1.,0.));
#1446 = ORIENTED_EDGE('',*,*,#1425,.T.);
#1447 = ORIENTED_EDGE('',*,*,#557,.T.);
#1448 = ORIENTED_EDGE('',*,*,#1449,.F.);
#1449 = EDGE_CURVE('',#1440,#550,#1450,.T.);
#1450 = LINE('',#1451,#1452);
#1451 = CARTESIAN_POINT('',(25.,-16.00666419935,20.2));
#1452 = VECTOR('',#1453,1.);
#1453 = DIRECTION('',(1.,0.,0.));
#1454 = PLANE('',#1455);
#1455 = AXIS2_PLACEMENT_3D('',#1456,#1457,#1458);
#1456 = CARTESIAN_POINT('',(25.,-17.99333580064,20.2));
#1457 = DIRECTION('',(0.,0.,1.));
#1458 = DIRECTION('',(0.,1.,0.));
#1459 = ADVANCED_FACE('',(#1460),#1471,.T.);
#1460 = FACE_BOUND('',#1461,.T.);
#1461 = EDGE_LOOP('',(#1462,#1468,#1469,#1470));
#1462 = ORIENTED_EDGE('',*,*,#1463,.F.);
#1463 = EDGE_CURVE('',#1384,#1440,#1464,.T.);
#1464 = LINE('',#1465,#1466);
#1465 = CARTESIAN_POINT('',(25.,-14.5,19.330127018922));
#1466 = VECTOR('',#1467,1.);
#1467 = DIRECTION('',(0.,-0.866025403784,0.5));
#1468 = ORIENTED_EDGE('',*,*,#1383,.T.);
#1469 = ORIENTED_EDGE('',*,*,#549,.T.);
#1470 = ORIENTED_EDGE('',*,*,#1449,.F.);
#1471 = PLANE('',#1472);
#1472 = AXIS2_PLACEMENT_3D('',#1473,#1474,#1475);
#1473 = CARTESIAN_POINT('',(25.,-14.5,19.330127018922));
#1474 = DIRECTION('',(0.,-0.5,-0.866025403784));
#1475 = DIRECTION('',(0.,-0.866025403784,0.5));
#1476 = ADVANCED_FACE('',(#1477,#1488),#1491,.F.);
#1477 = FACE_BOUND('',#1478,.F.);
#1478 = EDGE_LOOP('',(#1479));
#1479 = ORIENTED_EDGE('',*,*,#1480,.F.);
#1480 = EDGE_CURVE('',#1481,#1481,#1483,.T.);
#1481 = VERTEX_POINT('',#1482);
#1482 = CARTESIAN_POINT('',(59.503269580142,35.299259458194,-2.7));
#1483 = CIRCLE('',#1484,7.81355);
#1484 = AXIS2_PLACEMENT_3D('',#1485,#1486,#1487);
#1485 = CARTESIAN_POINT('',(51.689719580142,35.299259458194,-2.7));
#1486 = DIRECTION('',(0.,0.,-1.));
#1487 = DIRECTION('',(1.,0.,0.));
#1488 = FACE_BOUND('',#1489,.F.);
#1489 = EDGE_LOOP('',(#1490));
#1490 = ORIENTED_EDGE('',*,*,#579,.F.);
#1491 = PLANE('',#1492);
#1492 = AXIS2_PLACEMENT_3D('',#1493,#1494,#1495);
#1493 = CARTESIAN_POINT('',(51.689719580142,35.299259458194,-2.7));
#1494 = DIRECTION('',(0.,0.,1.));
#1495 = DIRECTION('',(1.,0.,0.));
#1496 = ADVANCED_FACE('',(#1497),#1504,.F.);
#1497 = FACE_BOUND('',#1498,.F.);
#1498 = EDGE_LOOP('',(#1499,#1500,#1501,#1502,#1503));
#1499 = ORIENTED_EDGE('',*,*,#764,.F.);
#1500 = ORIENTED_EDGE('',*,*,#789,.F.);
#1501 = ORIENTED_EDGE('',*,*,#829,.T.);
#1502 = ORIENTED_EDGE('',*,*,#1366,.F.);
#1503 = ORIENTED_EDGE('',*,*,#621,.F.);
#1504 = PLANE('',#1505);
#1505 = AXIS2_PLACEMENT_3D('',#1506,#1507,#1508);
#1506 = CARTESIAN_POINT('',(22.,-47.87329257084,37.6));
#1507 = DIRECTION('',(1.,0.,0.));
#1508 = DIRECTION('',(0.,0.,1.));
#1509 = ADVANCED_FACE('',(#1510),#1536,.F.);
#1510 = FACE_BOUND('',#1511,.T.);
#1511 = EDGE_LOOP('',(#1512,#1520,#1529,#1535));
#1512 = ORIENTED_EDGE('',*,*,#1513,.F.);
#1513 = EDGE_CURVE('',#1514,#659,#1516,.T.);
#1514 = VERTEX_POINT('',#1515);
#1515 = CARTESIAN_POINT('',(25.,-53.5,19.330127018922));
#1516 = LINE('',#1517,#1518);
#1517 = CARTESIAN_POINT('',(25.,-53.5,19.330127018922));
#1518 = VECTOR('',#1519,1.);
#1519 = DIRECTION('',(1.,0.,0.));
#1520 = ORIENTED_EDGE('',*,*,#1521,.T.);
#1521 = EDGE_CURVE('',#1514,#1522,#1524,.T.);
#1522 = VERTEX_POINT('',#1523);
#1523 = CARTESIAN_POINT('',(25.,-58.5,19.330127018922));
#1524 = CIRCLE('',#1525,5.);
#1525 = AXIS2_PLACEMENT_3D('',#1526,#1527,#1528);
#1526 = CARTESIAN_POINT('',(25.,-56.,15.));
#1527 = DIRECTION('',(-1.,0.,0.));
#1528 = DIRECTION('',(0.,0.,1.));
#1529 = ORIENTED_EDGE('',*,*,#1530,.T.);
#1530 = EDGE_CURVE('',#1522,#657,#1531,.T.);
#1531 = LINE('',#1532,#1533);
#1532 = CARTESIAN_POINT('',(25.,-58.5,19.330127018922));
#1533 = VECTOR('',#1534,1.);
#1534 = DIRECTION('',(1.,0.,0.));
#1535 = ORIENTED_EDGE('',*,*,#656,.T.);
#1536 = CYLINDRICAL_SURFACE('',#1537,5.);
#1537 = AXIS2_PLACEMENT_3D('',#1538,#1539,#1540);
#1538 = CARTESIAN_POINT('',(25.,-56.,15.));
#1539 = DIRECTION('',(1.,0.,0.));
#1540 = DIRECTION('',(0.,0.,1.));
#1541 = ADVANCED_FACE('',(#1542),#1560,.T.);
#1542 = FACE_BOUND('',#1543,.T.);
#1543 = EDGE_LOOP('',(#1544,#1552,#1553,#1554));
#1544 = ORIENTED_EDGE('',*,*,#1545,.F.);
#1545 = EDGE_CURVE('',#1514,#1546,#1548,.T.);
#1546 = VERTEX_POINT('',#1547);
#1547 = CARTESIAN_POINT('',(25.,-55.00666419935,20.2));
#1548 = LINE('',#1549,#1550);
#1549 = CARTESIAN_POINT('',(25.,-53.5,19.330127018922));
#1550 = VECTOR('',#1551,1.);
#1551 = DIRECTION('',(0.,-0.866025403784,0.5));
#1552 = ORIENTED_EDGE('',*,*,#1513,.T.);
#1553 = ORIENTED_EDGE('',*,*,#683,.F.);
#1554 = ORIENTED_EDGE('',*,*,#1555,.F.);
#1555 = EDGE_CURVE('',#1546,#676,#1556,.T.);
#1556 = LINE('',#1557,#1558);
#1557 = CARTESIAN_POINT('',(25.,-55.00666419935,20.2));
#1558 = VECTOR('',#1559,1.);
#1559 = DIRECTION('',(1.,0.,0.));
#1560 = PLANE('',#1561);
#1561 = AXIS2_PLACEMENT_3D('',#1562,#1563,#1564);
#1562 = CARTESIAN_POINT('',(25.,-53.5,19.330127018922));
#1563 = DIRECTION('',(0.,-0.5,-0.866025403784));
#1564 = DIRECTION('',(0.,-0.866025403784,0.5));
#1565 = ADVANCED_FACE('',(#1566),#1584,.F.);
#1566 = FACE_BOUND('',#1567,.F.);
#1567 = EDGE_LOOP('',(#1568,#1576,#1582,#1583));
#1568 = ORIENTED_EDGE('',*,*,#1569,.F.);
#1569 = EDGE_CURVE('',#1570,#1546,#1572,.T.);
#1570 = VERTEX_POINT('',#1571);
#1571 = CARTESIAN_POINT('',(25.,-56.99333580064,20.2));
#1572 = LINE('',#1573,#1574);
#1573 = CARTESIAN_POINT('',(25.,-56.99333580064,20.2));
#1574 = VECTOR('',#1575,1.);
#1575 = DIRECTION('',(0.,1.,0.));
#1576 = ORIENTED_EDGE('',*,*,#1577,.T.);
#1577 = EDGE_CURVE('',#1570,#668,#1578,.T.);
#1578 = LINE('',#1579,#1580);
#1579 = CARTESIAN_POINT('',(25.,-56.99333580064,20.2));
#1580 = VECTOR('',#1581,1.);
#1581 = DIRECTION('',(1.,0.,0.));
#1582 = ORIENTED_EDGE('',*,*,#675,.F.);
#1583 = ORIENTED_EDGE('',*,*,#1555,.F.);
#1584 = PLANE('',#1585);
#1585 = AXIS2_PLACEMENT_3D('',#1586,#1587,#1588);
#1586 = CARTESIAN_POINT('',(25.,-56.99333580064,20.2));
#1587 = DIRECTION('',(0.,0.,1.));
#1588 = DIRECTION('',(0.,1.,0.));
#1589 = ADVANCED_FACE('',(#1590),#1601,.F.);
#1590 = FACE_BOUND('',#1591,.F.);
#1591 = EDGE_LOOP('',(#1592,#1598,#1599,#1600));
#1592 = ORIENTED_EDGE('',*,*,#1593,.F.);
#1593 = EDGE_CURVE('',#1522,#1570,#1594,.T.);
#1594 = LINE('',#1595,#1596);
#1595 = CARTESIAN_POINT('',(25.,-58.5,19.330127018922));
#1596 = VECTOR('',#1597,1.);
#1597 = DIRECTION('',(0.,0.866025403784,0.5));
#1598 = ORIENTED_EDGE('',*,*,#1530,.T.);
#1599 = ORIENTED_EDGE('',*,*,#667,.F.);
#1600 = ORIENTED_EDGE('',*,*,#1577,.F.);
#1601 = PLANE('',#1602);
#1602 = AXIS2_PLACEMENT_3D('',#1603,#1604,#1605);
#1603 = CARTESIAN_POINT('',(25.,-58.5,19.330127018922));
#1604 = DIRECTION('',(0.,-0.5,0.866025403784));
#1605 = DIRECTION('',(0.,0.866025403784,0.5));
#1606 = ADVANCED_FACE('',(#1607,#1625),#1645,.T.);
#1607 = FACE_BOUND('',#1608,.T.);
#1608 = EDGE_LOOP('',(#1609,#1610,#1611,#1619));
#1609 = ORIENTED_EDGE('',*,*,#706,.T.);
#1610 = ORIENTED_EDGE('',*,*,#740,.T.);
#1611 = ORIENTED_EDGE('',*,*,#1612,.T.);
#1612 = EDGE_CURVE('',#733,#1613,#1615,.T.);
#1613 = VERTEX_POINT('',#1614);
#1614 = CARTESIAN_POINT('',(57.214727819977,40.824267698026,-4.2));
#1615 = LINE('',#1616,#1617);
#1616 = CARTESIAN_POINT('',(51.689719580142,46.349264037246,-4.2));
#1617 = VECTOR('',#1618,1.);
#1618 = DIRECTION('',(0.707106781187,-0.707106781187,0.));
#1619 = ORIENTED_EDGE('',*,*,#1620,.T.);
#1620 = EDGE_CURVE('',#1613,#707,#1621,.T.);
#1621 = LINE('',#1622,#1623);
#1622 = CARTESIAN_POINT('',(51.689719580142,46.349264037246,-4.2));
#1623 = VECTOR('',#1624,1.);
#1624 = DIRECTION('',(0.707106781187,-0.707106781187,0.));
#1625 = FACE_BOUND('',#1626,.T.);
#1626 = EDGE_LOOP('',(#1627,#1638));
#1627 = ORIENTED_EDGE('',*,*,#1628,.F.);
#1628 = EDGE_CURVE('',#1629,#1631,#1633,.T.);
#1629 = VERTEX_POINT('',#1630);
#1630 = CARTESIAN_POINT('',(57.214727819977,40.824267698026,-4.2));
#1631 = VERTEX_POINT('',#1632);
#1632 = CARTESIAN_POINT('',(59.503269580142,35.299259458194,-4.2));
#1633 = CIRCLE('',#1634,7.81355);
#1634 = AXIS2_PLACEMENT_3D('',#1635,#1636,#1637);
#1635 = CARTESIAN_POINT('',(51.689719580142,35.299259458194,-4.2));
#1636 = DIRECTION('',(0.,0.,-1.));
#1637 = DIRECTION('',(1.,0.,0.));
#1638 = ORIENTED_EDGE('',*,*,#1639,.F.);
#1639 = EDGE_CURVE('',#1631,#1629,#1640,.T.);
#1640 = CIRCLE('',#1641,7.81355);
#1641 = AXIS2_PLACEMENT_3D('',#1642,#1643,#1644);
#1642 = CARTESIAN_POINT('',(51.689719580142,35.299259458194,-4.2));
#1643 = DIRECTION('',(0.,0.,-1.));
#1644 = DIRECTION('',(1.,0.,0.));
#1645 = PLANE('',#1646);
#1646 = AXIS2_PLACEMENT_3D('',#1647,#1648,#1649);
#1647 = CARTESIAN_POINT('',(51.689719580142,35.299259458194,-4.2));
#1648 = DIRECTION('',(0.,0.,-1.));
#1649 = DIRECTION('',(-1.,0.,0.));
#1650 = ADVANCED_FACE('',(#1651),#1663,.T.);
#1651 = FACE_BOUND('',#1652,.T.);
#1652 = EDGE_LOOP('',(#1653,#1654,#1660,#1661,#1662));
#1653 = ORIENTED_EDGE('',*,*,#732,.T.);
#1654 = ORIENTED_EDGE('',*,*,#1655,.T.);
#1655 = EDGE_CURVE('',#724,#716,#1656,.T.);
#1656 = LINE('',#1657,#1658);
#1657 = CARTESIAN_POINT('',(51.689719580142,46.349264037246,-4.4));
#1658 = VECTOR('',#1659,1.);
#1659 = DIRECTION('',(0.707106781187,-0.707106781187,0.));
#1660 = ORIENTED_EDGE('',*,*,#715,.F.);
#1661 = ORIENTED_EDGE('',*,*,#1620,.F.);
#1662 = ORIENTED_EDGE('',*,*,#1612,.F.);
#1663 = PLANE('',#1664);
#1664 = AXIS2_PLACEMENT_3D('',#1665,#1666,#1667);
#1665 = CARTESIAN_POINT('',(51.689719580142,46.349264037246,-4.2));
#1666 = DIRECTION('',(-0.707106781187,-0.707106781187,-0.));
#1667 = DIRECTION('',(0.707106781187,-0.707106781187,0.));
#1668 = ADVANCED_FACE('',(#1669),#1673,.F.);
#1669 = FACE_BOUND('',#1670,.F.);
#1670 = EDGE_LOOP('',(#1671,#1672));
#1671 = ORIENTED_EDGE('',*,*,#1655,.T.);
#1672 = ORIENTED_EDGE('',*,*,#723,.F.);
#1673 = PLANE('',#1674);
#1674 = AXIS2_PLACEMENT_3D('',#1675,#1676,#1677);
#1675 = CARTESIAN_POINT('',(57.920327058907,41.52987151601,-4.4));
#1676 = DIRECTION('',(0.,0.,1.));
#1677 = DIRECTION('',(1.,0.,0.));
#1678 = ADVANCED_FACE('',(#1679,#1723,#1729),#1734,.T.);
#1679 = FACE_BOUND('',#1680,.T.);
#1680 = EDGE_LOOP('',(#1681,#1692,#1700,#1708,#1716));
#1681 = ORIENTED_EDGE('',*,*,#1682,.T.);
#1682 = EDGE_CURVE('',#1683,#1685,#1687,.T.);
#1683 = VERTEX_POINT('',#1684);
#1684 = CARTESIAN_POINT('',(23.5,-17.,37.375));
#1685 = VERTEX_POINT('',#1686);
#1686 = CARTESIAN_POINT('',(23.5,-16.1875,40.40729128115));
#1687 = CIRCLE('',#1688,1.625);
#1688 = AXIS2_PLACEMENT_3D('',#1689,#1690,#1691);
#1689 = CARTESIAN_POINT('',(23.5,-17.,39.));
#1690 = DIRECTION('',(1.,-0.,0.));
#1691 = DIRECTION('',(0.,0.,-1.));
#1692 = ORIENTED_EDGE('',*,*,#1693,.T.);
#1693 = EDGE_CURVE('',#1685,#1694,#1696,.T.);
#1694 = VERTEX_POINT('',#1695);
#1695 = CARTESIAN_POINT('',(23.5,-16.91099272381,40.825));
#1696 = LINE('',#1697,#1698);
#1697 = CARTESIAN_POINT('',(23.5,-16.1875,40.40729128115));
#1698 = VECTOR('',#1699,1.);
#1699 = DIRECTION('',(0.,-0.866025403784,0.5));
#1700 = ORIENTED_EDGE('',*,*,#1701,.F.);
#1701 = EDGE_CURVE('',#1702,#1694,#1704,.T.);
#1702 = VERTEX_POINT('',#1703);
#1703 = CARTESIAN_POINT('',(23.5,-17.08900727618,40.825));
#1704 = LINE('',#1705,#1706);
#1705 = CARTESIAN_POINT('',(23.5,-17.08900727618,40.825));
#1706 = VECTOR('',#1707,1.);
#1707 = DIRECTION('',(0.,1.,0.));
#1708 = ORIENTED_EDGE('',*,*,#1709,.F.);
#1709 = EDGE_CURVE('',#1710,#1702,#1712,.T.);
#1710 = VERTEX_POINT('',#1711);
#1711 = CARTESIAN_POINT('',(23.5,-17.8125,40.40729128115));
#1712 = LINE('',#1713,#1714);
#1713 = CARTESIAN_POINT('',(23.5,-17.8125,40.40729128115));
#1714 = VECTOR('',#1715,1.);
#1715 = DIRECTION('',(0.,0.866025403784,0.5));
#1716 = ORIENTED_EDGE('',*,*,#1717,.T.);
#1717 = EDGE_CURVE('',#1710,#1683,#1718,.T.);
#1718 = CIRCLE('',#1719,1.625);
#1719 = AXIS2_PLACEMENT_3D('',#1720,#1721,#1722);
#1720 = CARTESIAN_POINT('',(23.5,-17.,39.));
#1721 = DIRECTION('',(1.,-0.,0.));
#1722 = DIRECTION('',(0.,0.,-1.));
#1723 = FACE_BOUND('',#1724,.T.);
#1724 = EDGE_LOOP('',(#1725,#1726,#1727,#1728));
#1725 = ORIENTED_EDGE('',*,*,#977,.T.);
#1726 = ORIENTED_EDGE('',*,*,#994,.F.);
#1727 = ORIENTED_EDGE('',*,*,#935,.F.);
#1728 = ORIENTED_EDGE('',*,*,#962,.F.);
#1729 = FACE_BOUND('',#1730,.T.);
#1730 = EDGE_LOOP('',(#1731,#1732,#1733));
#1731 = ORIENTED_EDGE('',*,*,#918,.F.);
#1732 = ORIENTED_EDGE('',*,*,#861,.T.);
#1733 = ORIENTED_EDGE('',*,*,#894,.F.);
#1734 = PLANE('',#1735);
#1735 = AXIS2_PLACEMENT_3D('',#1736,#1737,#1738);
#1736 = CARTESIAN_POINT('',(23.5,-17.,39.062633892453));
#1737 = DIRECTION('',(1.,0.,0.));
#1738 = DIRECTION('',(0.,0.,1.));
#1739 = ADVANCED_FACE('',(#1740,#1784,#1790),#1795,.T.);
#1740 = FACE_BOUND('',#1741,.T.);
#1741 = EDGE_LOOP('',(#1742,#1753,#1761,#1769,#1777));
#1742 = ORIENTED_EDGE('',*,*,#1743,.T.);
#1743 = EDGE_CURVE('',#1744,#1746,#1748,.T.);
#1744 = VERTEX_POINT('',#1745);
#1745 = CARTESIAN_POINT('',(23.5,-17.,13.375));
#1746 = VERTEX_POINT('',#1747);
#1747 = CARTESIAN_POINT('',(23.5,-16.1875,16.40729128115));
#1748 = CIRCLE('',#1749,1.625);
#1749 = AXIS2_PLACEMENT_3D('',#1750,#1751,#1752);
#1750 = CARTESIAN_POINT('',(23.5,-17.,15.));
#1751 = DIRECTION('',(1.,-0.,0.));
#1752 = DIRECTION('',(0.,0.,-1.));
#1753 = ORIENTED_EDGE('',*,*,#1754,.T.);
#1754 = EDGE_CURVE('',#1746,#1755,#1757,.T.);
#1755 = VERTEX_POINT('',#1756);
#1756 = CARTESIAN_POINT('',(23.5,-16.91099272381,16.825));
#1757 = LINE('',#1758,#1759);
#1758 = CARTESIAN_POINT('',(23.5,-16.1875,16.40729128115));
#1759 = VECTOR('',#1760,1.);
#1760 = DIRECTION('',(0.,-0.866025403784,0.5));
#1761 = ORIENTED_EDGE('',*,*,#1762,.F.);
#1762 = EDGE_CURVE('',#1763,#1755,#1765,.T.);
#1763 = VERTEX_POINT('',#1764);
#1764 = CARTESIAN_POINT('',(23.5,-17.08900727618,16.825));
#1765 = LINE('',#1766,#1767);
#1766 = CARTESIAN_POINT('',(23.5,-17.08900727618,16.825));
#1767 = VECTOR('',#1768,1.);
#1768 = DIRECTION('',(0.,1.,0.));
#1769 = ORIENTED_EDGE('',*,*,#1770,.F.);
#1770 = EDGE_CURVE('',#1771,#1763,#1773,.T.);
#1771 = VERTEX_POINT('',#1772);
#1772 = CARTESIAN_POINT('',(23.5,-17.8125,16.40729128115));
#1773 = LINE('',#1774,#1775);
#1774 = CARTESIAN_POINT('',(23.5,-17.8125,16.40729128115));
#1775 = VECTOR('',#1776,1.);
#1776 = DIRECTION('',(0.,0.866025403784,0.5));
#1777 = ORIENTED_EDGE('',*,*,#1778,.T.);
#1778 = EDGE_CURVE('',#1771,#1744,#1779,.T.);
#1779 = CIRCLE('',#1780,1.625);
#1780 = AXIS2_PLACEMENT_3D('',#1781,#1782,#1783);
#1781 = CARTESIAN_POINT('',(23.5,-17.,15.));
#1782 = DIRECTION('',(1.,-0.,0.));
#1783 = DIRECTION('',(0.,0.,-1.));
#1784 = FACE_BOUND('',#1785,.T.);
#1785 = EDGE_LOOP('',(#1786,#1787,#1788,#1789));
#1786 = ORIENTED_EDGE('',*,*,#1127,.T.);
#1787 = ORIENTED_EDGE('',*,*,#1144,.F.);
#1788 = ORIENTED_EDGE('',*,*,#1085,.F.);
#1789 = ORIENTED_EDGE('',*,*,#1112,.F.);
#1790 = FACE_BOUND('',#1791,.T.);
#1791 = EDGE_LOOP('',(#1792,#1793,#1794));
#1792 = ORIENTED_EDGE('',*,*,#1068,.F.);
#1793 = ORIENTED_EDGE('',*,*,#1011,.T.);
#1794 = ORIENTED_EDGE('',*,*,#1044,.F.);
#1795 = PLANE('',#1796);
#1796 = AXIS2_PLACEMENT_3D('',#1797,#1798,#1799);
#1797 = CARTESIAN_POINT('',(23.5,-17.,15.062633892453));
#1798 = DIRECTION('',(1.,0.,0.));
#1799 = DIRECTION('',(0.,0.,1.));
#1800 = ADVANCED_FACE('',(#1801,#1845,#1851),#1856,.T.);
#1801 = FACE_BOUND('',#1802,.T.);
#1802 = EDGE_LOOP('',(#1803,#1814,#1822,#1830,#1838));
#1803 = ORIENTED_EDGE('',*,*,#1804,.T.);
#1804 = EDGE_CURVE('',#1805,#1807,#1809,.T.);
#1805 = VERTEX_POINT('',#1806);
#1806 = CARTESIAN_POINT('',(23.5,-56.,13.375));
#1807 = VERTEX_POINT('',#1808);
#1808 = CARTESIAN_POINT('',(23.5,-55.1875,16.40729128115));
#1809 = CIRCLE('',#1810,1.625);
#1810 = AXIS2_PLACEMENT_3D('',#1811,#1812,#1813);
#1811 = CARTESIAN_POINT('',(23.5,-56.,15.));
#1812 = DIRECTION('',(1.,-0.,0.));
#1813 = DIRECTION('',(0.,0.,-1.));
#1814 = ORIENTED_EDGE('',*,*,#1815,.T.);
#1815 = EDGE_CURVE('',#1807,#1816,#1818,.T.);
#1816 = VERTEX_POINT('',#1817);
#1817 = CARTESIAN_POINT('',(23.5,-55.91099272381,16.825000000001));
#1818 = LINE('',#1819,#1820);
#1819 = CARTESIAN_POINT('',(23.5,-55.1875,16.40729128115));
#1820 = VECTOR('',#1821,1.);
#1821 = DIRECTION('',(0.,-0.866025403784,0.5));
#1822 = ORIENTED_EDGE('',*,*,#1823,.F.);
#1823 = EDGE_CURVE('',#1824,#1816,#1826,.T.);
#1824 = VERTEX_POINT('',#1825);
#1825 = CARTESIAN_POINT('',(23.5,-56.08900727618,16.825000000001));
#1826 = LINE('',#1827,#1828);
#1827 = CARTESIAN_POINT('',(23.5,-56.08900727618,16.825000000001));
#1828 = VECTOR('',#1829,1.);
#1829 = DIRECTION('',(0.,1.,0.));
#1830 = ORIENTED_EDGE('',*,*,#1831,.F.);
#1831 = EDGE_CURVE('',#1832,#1824,#1834,.T.);
#1832 = VERTEX_POINT('',#1833);
#1833 = CARTESIAN_POINT('',(23.5,-56.8125,16.40729128115));
#1834 = LINE('',#1835,#1836);
#1835 = CARTESIAN_POINT('',(23.5,-56.8125,16.40729128115));
#1836 = VECTOR('',#1837,1.);
#1837 = DIRECTION('',(0.,0.866025403784,0.5));
#1838 = ORIENTED_EDGE('',*,*,#1839,.T.);
#1839 = EDGE_CURVE('',#1832,#1805,#1840,.T.);
#1840 = CIRCLE('',#1841,1.625);
#1841 = AXIS2_PLACEMENT_3D('',#1842,#1843,#1844);
#1842 = CARTESIAN_POINT('',(23.5,-56.,15.));
#1843 = DIRECTION('',(1.,-0.,0.));
#1844 = DIRECTION('',(0.,0.,-1.));
#1845 = FACE_BOUND('',#1846,.T.);
#1846 = EDGE_LOOP('',(#1847,#1848,#1849,#1850));
#1847 = ORIENTED_EDGE('',*,*,#1277,.T.);
#1848 = ORIENTED_EDGE('',*,*,#1294,.F.);
#1849 = ORIENTED_EDGE('',*,*,#1235,.F.);
#1850 = ORIENTED_EDGE('',*,*,#1262,.F.);
#1851 = FACE_BOUND('',#1852,.T.);
#1852 = EDGE_LOOP('',(#1853,#1854,#1855));
#1853 = ORIENTED_EDGE('',*,*,#1218,.F.);
#1854 = ORIENTED_EDGE('',*,*,#1161,.T.);
#1855 = ORIENTED_EDGE('',*,*,#1194,.F.);
#1856 = PLANE('',#1857);
#1857 = AXIS2_PLACEMENT_3D('',#1858,#1859,#1860);
#1858 = CARTESIAN_POINT('',(23.5,-56.,15.062633892453));
#1859 = DIRECTION('',(1.,0.,0.));
#1860 = DIRECTION('',(0.,0.,1.));
#1861 = ADVANCED_FACE('',(#1862),#1888,.F.);
#1862 = FACE_BOUND('',#1863,.T.);
#1863 = EDGE_LOOP('',(#1864,#1872,#1881,#1887));
#1864 = ORIENTED_EDGE('',*,*,#1865,.F.);
#1865 = EDGE_CURVE('',#1866,#1325,#1868,.T.);
#1866 = VERTEX_POINT('',#1867);
#1867 = CARTESIAN_POINT('',(25.,-14.5,43.330127018924));
#1868 = LINE('',#1869,#1870);
#1869 = CARTESIAN_POINT('',(25.,-14.5,43.330127018924));
#1870 = VECTOR('',#1871,1.);
#1871 = DIRECTION('',(1.,0.,0.));
#1872 = ORIENTED_EDGE('',*,*,#1873,.T.);
#1873 = EDGE_CURVE('',#1866,#1874,#1876,.T.);
#1874 = VERTEX_POINT('',#1875);
#1875 = CARTESIAN_POINT('',(25.,-19.5,43.33012701892));
#1876 = CIRCLE('',#1877,5.);
#1877 = AXIS2_PLACEMENT_3D('',#1878,#1879,#1880);
#1878 = CARTESIAN_POINT('',(25.,-17.,39.));
#1879 = DIRECTION('',(-1.,0.,0.));
#1880 = DIRECTION('',(0.,0.,1.));
#1881 = ORIENTED_EDGE('',*,*,#1882,.T.);
#1882 = EDGE_CURVE('',#1874,#1323,#1883,.T.);
#1883 = LINE('',#1884,#1885);
#1884 = CARTESIAN_POINT('',(25.,-19.5,43.33012701892));
#1885 = VECTOR('',#1886,1.);
#1886 = DIRECTION('',(1.,0.,0.));
#1887 = ORIENTED_EDGE('',*,*,#1322,.T.);
#1888 = CYLINDRICAL_SURFACE('',#1889,5.);
#1889 = AXIS2_PLACEMENT_3D('',#1890,#1891,#1892);
#1890 = CARTESIAN_POINT('',(25.,-17.,39.));
#1891 = DIRECTION('',(1.,0.,0.));
#1892 = DIRECTION('',(0.,0.,1.));
#1893 = ADVANCED_FACE('',(#1894),#1912,.T.);
#1894 = FACE_BOUND('',#1895,.T.);
#1895 = EDGE_LOOP('',(#1896,#1904,#1905,#1906));
#1896 = ORIENTED_EDGE('',*,*,#1897,.F.);
#1897 = EDGE_CURVE('',#1866,#1898,#1900,.T.);
#1898 = VERTEX_POINT('',#1899);
#1899 = CARTESIAN_POINT('',(25.,-16.00666419935,44.2));
#1900 = LINE('',#1901,#1902);
#1901 = CARTESIAN_POINT('',(25.,-14.5,43.330127018924));
#1902 = VECTOR('',#1903,1.);
#1903 = DIRECTION('',(0.,-0.866025403784,0.500000000001));
#1904 = ORIENTED_EDGE('',*,*,#1865,.T.);
#1905 = ORIENTED_EDGE('',*,*,#1349,.F.);
#1906 = ORIENTED_EDGE('',*,*,#1907,.F.);
#1907 = EDGE_CURVE('',#1898,#1342,#1908,.T.);
#1908 = LINE('',#1909,#1910);
#1909 = CARTESIAN_POINT('',(25.,-16.00666419935,44.2));
#1910 = VECTOR('',#1911,1.);
#1911 = DIRECTION('',(1.,0.,0.));
#1912 = PLANE('',#1913);
#1913 = AXIS2_PLACEMENT_3D('',#1914,#1915,#1916);
#1914 = CARTESIAN_POINT('',(25.,-14.5,43.330127018924));
#1915 = DIRECTION('',(0.,-0.500000000001,-0.866025403784));
#1916 = DIRECTION('',(0.,-0.866025403784,0.500000000001));
#1917 = ADVANCED_FACE('',(#1918),#1936,.F.);
#1918 = FACE_BOUND('',#1919,.F.);
#1919 = EDGE_LOOP('',(#1920,#1928,#1934,#1935));
#1920 = ORIENTED_EDGE('',*,*,#1921,.F.);
#1921 = EDGE_CURVE('',#1922,#1898,#1924,.T.);
#1922 = VERTEX_POINT('',#1923);
#1923 = CARTESIAN_POINT('',(25.,-17.99333580064,44.2));
#1924 = LINE('',#1925,#1926);
#1925 = CARTESIAN_POINT('',(25.,-17.99333580064,44.2));
#1926 = VECTOR('',#1927,1.);
#1927 = DIRECTION('',(0.,1.,0.));
#1928 = ORIENTED_EDGE('',*,*,#1929,.T.);
#1929 = EDGE_CURVE('',#1922,#1334,#1930,.T.);
#1930 = LINE('',#1931,#1932);
#1931 = CARTESIAN_POINT('',(25.,-17.99333580064,44.2));
#1932 = VECTOR('',#1933,1.);
#1933 = DIRECTION('',(1.,0.,0.));
#1934 = ORIENTED_EDGE('',*,*,#1341,.F.);
#1935 = ORIENTED_EDGE('',*,*,#1907,.F.);
#1936 = PLANE('',#1937);
#1937 = AXIS2_PLACEMENT_3D('',#1938,#1939,#1940);
#1938 = CARTESIAN_POINT('',(25.,-17.99333580064,44.2));
#1939 = DIRECTION('',(0.,0.,1.));
#1940 = DIRECTION('',(0.,1.,0.));
#1941 = ADVANCED_FACE('',(#1942),#1953,.F.);
#1942 = FACE_BOUND('',#1943,.F.);
#1943 = EDGE_LOOP('',(#1944,#1950,#1951,#1952));
#1944 = ORIENTED_EDGE('',*,*,#1945,.F.);
#1945 = EDGE_CURVE('',#1874,#1922,#1946,.T.);
#1946 = LINE('',#1947,#1948);
#1947 = CARTESIAN_POINT('',(25.,-19.5,43.33012701892));
#1948 = VECTOR('',#1949,1.);
#1949 = DIRECTION('',(0.,0.866025403784,0.500000000001));
#1950 = ORIENTED_EDGE('',*,*,#1882,.T.);
#1951 = ORIENTED_EDGE('',*,*,#1333,.F.);
#1952 = ORIENTED_EDGE('',*,*,#1929,.F.);
#1953 = PLANE('',#1954);
#1954 = AXIS2_PLACEMENT_3D('',#1955,#1956,#1957);
#1955 = CARTESIAN_POINT('',(25.,-19.5,43.33012701892));
#1956 = DIRECTION('',(0.,-0.500000000001,0.866025403784));
#1957 = DIRECTION('',(0.,0.866025403784,0.500000000001));
#1958 = ADVANCED_FACE('',(#1959,#1965),#2009,.T.);
#1959 = FACE_BOUND('',#1960,.T.);
#1960 = EDGE_LOOP('',(#1961,#1962,#1963,#1964));
#1961 = ORIENTED_EDGE('',*,*,#1391,.F.);
#1962 = ORIENTED_EDGE('',*,*,#1463,.T.);
#1963 = ORIENTED_EDGE('',*,*,#1439,.F.);
#1964 = ORIENTED_EDGE('',*,*,#1415,.F.);
#1965 = FACE_BOUND('',#1966,.T.);
#1966 = EDGE_LOOP('',(#1967,#1978,#1987,#1995,#2003));
#1967 = ORIENTED_EDGE('',*,*,#1968,.F.);
#1968 = EDGE_CURVE('',#1969,#1971,#1973,.T.);
#1969 = VERTEX_POINT('',#1970);
#1970 = CARTESIAN_POINT('',(25.,-17.,13.375));
#1971 = VERTEX_POINT('',#1972);
#1972 = CARTESIAN_POINT('',(25.,-16.1875,16.40729128115));
#1973 = CIRCLE('',#1974,1.625);
#1974 = AXIS2_PLACEMENT_3D('',#1975,#1976,#1977);
#1975 = CARTESIAN_POINT('',(25.,-17.,15.));
#1976 = DIRECTION('',(1.,-0.,0.));
#1977 = DIRECTION('',(0.,0.,-1.));
#1978 = ORIENTED_EDGE('',*,*,#1979,.F.);
#1979 = EDGE_CURVE('',#1980,#1969,#1982,.T.);
#1980 = VERTEX_POINT('',#1981);
#1981 = CARTESIAN_POINT('',(25.,-17.8125,16.40729128115));
#1982 = CIRCLE('',#1983,1.625);
#1983 = AXIS2_PLACEMENT_3D('',#1984,#1985,#1986);
#1984 = CARTESIAN_POINT('',(25.,-17.,15.));
#1985 = DIRECTION('',(1.,-0.,0.));
#1986 = DIRECTION('',(0.,0.,-1.));
#1987 = ORIENTED_EDGE('',*,*,#1988,.T.);
#1988 = EDGE_CURVE('',#1980,#1989,#1991,.T.);
#1989 = VERTEX_POINT('',#1990);
#1990 = CARTESIAN_POINT('',(25.,-17.08900727618,16.825));
#1991 = LINE('',#1992,#1993);
#1992 = CARTESIAN_POINT('',(25.,-17.8125,16.40729128115));
#1993 = VECTOR('',#1994,1.);
#1994 = DIRECTION('',(0.,0.866025403784,0.5));
#1995 = ORIENTED_EDGE('',*,*,#1996,.T.);
#1996 = EDGE_CURVE('',#1989,#1997,#1999,.T.);
#1997 = VERTEX_POINT('',#1998);
#1998 = CARTESIAN_POINT('',(25.,-16.91099272381,16.825));
#1999 = LINE('',#2000,#2001);
#2000 = CARTESIAN_POINT('',(25.,-17.08900727618,16.825));
#2001 = VECTOR('',#2002,1.);
#2002 = DIRECTION('',(0.,1.,0.));
#2003 = ORIENTED_EDGE('',*,*,#2004,.F.);
#2004 = EDGE_CURVE('',#1971,#1997,#2005,.T.);
#2005 = LINE('',#2006,#2007);
#2006 = CARTESIAN_POINT('',(25.,-16.1875,16.40729128115));
#2007 = VECTOR('',#2008,1.);
#2008 = DIRECTION('',(0.,-0.866025403784,0.5));
#2009 = PLANE('',#2010);
#2010 = AXIS2_PLACEMENT_3D('',#2011,#2012,#2013);
#2011 = CARTESIAN_POINT('',(25.,-17.,15.381088084953));
#2012 = DIRECTION('',(1.,0.,0.));
#2013 = DIRECTION('',(0.,0.,1.));
#2014 = ADVANCED_FACE('',(#2015),#2027,.F.);
#2015 = FACE_BOUND('',#2016,.F.);
#2016 = EDGE_LOOP('',(#2017,#2018,#2024,#2025,#2026));
#2017 = ORIENTED_EDGE('',*,*,#1639,.F.);
#2018 = ORIENTED_EDGE('',*,*,#2019,.T.);
#2019 = EDGE_CURVE('',#1631,#1481,#2020,.T.);
#2020 = LINE('',#2021,#2022);
#2021 = CARTESIAN_POINT('',(59.503269580142,35.299259458194,-4.2));
#2022 = VECTOR('',#2023,1.);
#2023 = DIRECTION('',(0.,0.,1.));
#2024 = ORIENTED_EDGE('',*,*,#1480,.T.);
#2025 = ORIENTED_EDGE('',*,*,#2019,.F.);
#2026 = ORIENTED_EDGE('',*,*,#1628,.F.);
#2027 = CYLINDRICAL_SURFACE('',#2028,7.81355);
#2028 = AXIS2_PLACEMENT_3D('',#2029,#2030,#2031);
#2029 = CARTESIAN_POINT('',(51.689719580142,35.299259458194,-4.2));
#2030 = DIRECTION('',(0.,0.,-1.));
#2031 = DIRECTION('',(1.,0.,0.));
#2032 = ADVANCED_FACE('',(#2033,#2039),#2083,.T.);
#2033 = FACE_BOUND('',#2034,.T.);
#2034 = EDGE_LOOP('',(#2035,#2036,#2037,#2038));
#2035 = ORIENTED_EDGE('',*,*,#1521,.F.);
#2036 = ORIENTED_EDGE('',*,*,#1545,.T.);
#2037 = ORIENTED_EDGE('',*,*,#1569,.F.);
#2038 = ORIENTED_EDGE('',*,*,#1593,.F.);
#2039 = FACE_BOUND('',#2040,.T.);
#2040 = EDGE_LOOP('',(#2041,#2052,#2061,#2069,#2077));
#2041 = ORIENTED_EDGE('',*,*,#2042,.F.);
#2042 = EDGE_CURVE('',#2043,#2045,#2047,.T.);
#2043 = VERTEX_POINT('',#2044);
#2044 = CARTESIAN_POINT('',(25.,-56.,13.375));
#2045 = VERTEX_POINT('',#2046);
#2046 = CARTESIAN_POINT('',(25.,-55.1875,16.40729128115));
#2047 = CIRCLE('',#2048,1.625);
#2048 = AXIS2_PLACEMENT_3D('',#2049,#2050,#2051);
#2049 = CARTESIAN_POINT('',(25.,-56.,15.));
#2050 = DIRECTION('',(1.,-0.,0.));
#2051 = DIRECTION('',(0.,0.,-1.));
#2052 = ORIENTED_EDGE('',*,*,#2053,.F.);
#2053 = EDGE_CURVE('',#2054,#2043,#2056,.T.);
#2054 = VERTEX_POINT('',#2055);
#2055 = CARTESIAN_POINT('',(25.,-56.8125,16.40729128115));
#2056 = CIRCLE('',#2057,1.625);
#2057 = AXIS2_PLACEMENT_3D('',#2058,#2059,#2060);
#2058 = CARTESIAN_POINT('',(25.,-56.,15.));
#2059 = DIRECTION('',(1.,-0.,0.));
#2060 = DIRECTION('',(0.,0.,-1.));
#2061 = ORIENTED_EDGE('',*,*,#2062,.T.);
#2062 = EDGE_CURVE('',#2054,#2063,#2065,.T.);
#2063 = VERTEX_POINT('',#2064);
#2064 = CARTESIAN_POINT('',(25.,-56.08900727618,16.825000000001));
#2065 = LINE('',#2066,#2067);
#2066 = CARTESIAN_POINT('',(25.,-56.8125,16.40729128115));
#2067 = VECTOR('',#2068,1.);
#2068 = DIRECTION('',(0.,0.866025403784,0.5));
#2069 = ORIENTED_EDGE('',*,*,#2070,.T.);
#2070 = EDGE_CURVE('',#2063,#2071,#2073,.T.);
#2071 = VERTEX_POINT('',#2072);
#2072 = CARTESIAN_POINT('',(25.,-55.91099272381,16.825000000001));
#2073 = LINE('',#2074,#2075);
#2074 = CARTESIAN_POINT('',(25.,-56.08900727618,16.825000000001));
#2075 = VECTOR('',#2076,1.);
#2076 = DIRECTION('',(0.,1.,0.));
#2077 = ORIENTED_EDGE('',*,*,#2078,.F.);
#2078 = EDGE_CURVE('',#2045,#2071,#2079,.T.);
#2079 = LINE('',#2080,#2081);
#2080 = CARTESIAN_POINT('',(25.,-55.1875,16.40729128115));
#2081 = VECTOR('',#2082,1.);
#2082 = DIRECTION('',(0.,-0.866025403784,0.5));
#2083 = PLANE('',#2084);
#2084 = AXIS2_PLACEMENT_3D('',#2085,#2086,#2087);
#2085 = CARTESIAN_POINT('',(25.,-56.,15.381088084953));
#2086 = DIRECTION('',(1.,0.,0.));
#2087 = DIRECTION('',(0.,0.,1.));
#2088 = ADVANCED_FACE('',(#2089),#2125,.F.);
#2089 = FACE_BOUND('',#2090,.T.);
#2090 = EDGE_LOOP('',(#2091,#2092,#2100,#2109,#2118,#2124));
#2091 = ORIENTED_EDGE('',*,*,#1717,.F.);
#2092 = ORIENTED_EDGE('',*,*,#2093,.F.);
#2093 = EDGE_CURVE('',#2094,#1710,#2096,.T.);
#2094 = VERTEX_POINT('',#2095);
#2095 = CARTESIAN_POINT('',(25.,-17.8125,40.40729128115));
#2096 = LINE('',#2097,#2098);
#2097 = CARTESIAN_POINT('',(25.,-17.8125,40.40729128115));
#2098 = VECTOR('',#2099,1.);
#2099 = DIRECTION('',(-1.,-0.,-0.));
#2100 = ORIENTED_EDGE('',*,*,#2101,.T.);
#2101 = EDGE_CURVE('',#2094,#2102,#2104,.T.);
#2102 = VERTEX_POINT('',#2103);
#2103 = CARTESIAN_POINT('',(25.,-17.,37.375));
#2104 = CIRCLE('',#2105,1.625);
#2105 = AXIS2_PLACEMENT_3D('',#2106,#2107,#2108);
#2106 = CARTESIAN_POINT('',(25.,-17.,39.));
#2107 = DIRECTION('',(1.,-0.,0.));
#2108 = DIRECTION('',(0.,0.,-1.));
#2109 = ORIENTED_EDGE('',*,*,#2110,.T.);
#2110 = EDGE_CURVE('',#2102,#2111,#2113,.T.);
#2111 = VERTEX_POINT('',#2112);
#2112 = CARTESIAN_POINT('',(25.,-16.1875,40.40729128115));
#2113 = CIRCLE('',#2114,1.625);
#2114 = AXIS2_PLACEMENT_3D('',#2115,#2116,#2117);
#2115 = CARTESIAN_POINT('',(25.,-17.,39.));
#2116 = DIRECTION('',(1.,-0.,0.));
#2117 = DIRECTION('',(0.,0.,-1.));
#2118 = ORIENTED_EDGE('',*,*,#2119,.T.);
#2119 = EDGE_CURVE('',#2111,#1685,#2120,.T.);
#2120 = LINE('',#2121,#2122);
#2121 = CARTESIAN_POINT('',(25.,-16.1875,40.40729128115));
#2122 = VECTOR('',#2123,1.);
#2123 = DIRECTION('',(-1.,-0.,-0.));
#2124 = ORIENTED_EDGE('',*,*,#1682,.F.);
#2125 = CYLINDRICAL_SURFACE('',#2126,1.625);
#2126 = AXIS2_PLACEMENT_3D('',#2127,#2128,#2129);
#2127 = CARTESIAN_POINT('',(25.,-17.,39.));
#2128 = DIRECTION('',(-1.,-0.,-0.));
#2129 = DIRECTION('',(0.,0.,-1.));
#2130 = ADVANCED_FACE('',(#2131),#2149,.F.);
#2131 = FACE_BOUND('',#2132,.F.);
#2132 = EDGE_LOOP('',(#2133,#2134,#2135,#2143));
#2133 = ORIENTED_EDGE('',*,*,#2119,.T.);
#2134 = ORIENTED_EDGE('',*,*,#1693,.T.);
#2135 = ORIENTED_EDGE('',*,*,#2136,.F.);
#2136 = EDGE_CURVE('',#2137,#1694,#2139,.T.);
#2137 = VERTEX_POINT('',#2138);
#2138 = CARTESIAN_POINT('',(25.,-16.91099272381,40.825));
#2139 = LINE('',#2140,#2141);
#2140 = CARTESIAN_POINT('',(25.,-16.91099272381,40.825));
#2141 = VECTOR('',#2142,1.);
#2142 = DIRECTION('',(-1.,-0.,-0.));
#2143 = ORIENTED_EDGE('',*,*,#2144,.F.);
#2144 = EDGE_CURVE('',#2111,#2137,#2145,.T.);
#2145 = LINE('',#2146,#2147);
#2146 = CARTESIAN_POINT('',(25.,-16.1875,40.40729128115));
#2147 = VECTOR('',#2148,1.);
#2148 = DIRECTION('',(0.,-0.866025403784,0.5));
#2149 = PLANE('',#2150);
#2150 = AXIS2_PLACEMENT_3D('',#2151,#2152,#2153);
#2151 = CARTESIAN_POINT('',(25.,-16.1875,40.40729128115));
#2152 = DIRECTION('',(0.,0.5,0.866025403784));
#2153 = DIRECTION('',(0.,-0.866025403784,0.5));
#2154 = ADVANCED_FACE('',(#2155),#2173,.T.);
#2155 = FACE_BOUND('',#2156,.T.);
#2156 = EDGE_LOOP('',(#2157,#2165,#2166,#2167));
#2157 = ORIENTED_EDGE('',*,*,#2158,.T.);
#2158 = EDGE_CURVE('',#2159,#1702,#2161,.T.);
#2159 = VERTEX_POINT('',#2160);
#2160 = CARTESIAN_POINT('',(25.,-17.08900727618,40.825));
#2161 = LINE('',#2162,#2163);
#2162 = CARTESIAN_POINT('',(25.,-17.08900727618,40.825));
#2163 = VECTOR('',#2164,1.);
#2164 = DIRECTION('',(-1.,-0.,-0.));
#2165 = ORIENTED_EDGE('',*,*,#1701,.T.);
#2166 = ORIENTED_EDGE('',*,*,#2136,.F.);
#2167 = ORIENTED_EDGE('',*,*,#2168,.F.);
#2168 = EDGE_CURVE('',#2159,#2137,#2169,.T.);
#2169 = LINE('',#2170,#2171);
#2170 = CARTESIAN_POINT('',(25.,-17.08900727618,40.825));
#2171 = VECTOR('',#2172,1.);
#2172 = DIRECTION('',(0.,1.,0.));
#2173 = PLANE('',#2174);
#2174 = AXIS2_PLACEMENT_3D('',#2175,#2176,#2177);
#2175 = CARTESIAN_POINT('',(25.,-17.08900727618,40.825));
#2176 = DIRECTION('',(0.,0.,-1.));
#2177 = DIRECTION('',(0.,1.,0.));
#2178 = ADVANCED_FACE('',(#2179),#2190,.T.);
#2179 = FACE_BOUND('',#2180,.T.);
#2180 = EDGE_LOOP('',(#2181,#2182,#2183,#2184));
#2181 = ORIENTED_EDGE('',*,*,#2093,.T.);
#2182 = ORIENTED_EDGE('',*,*,#1709,.T.);
#2183 = ORIENTED_EDGE('',*,*,#2158,.F.);
#2184 = ORIENTED_EDGE('',*,*,#2185,.F.);
#2185 = EDGE_CURVE('',#2094,#2159,#2186,.T.);
#2186 = LINE('',#2187,#2188);
#2187 = CARTESIAN_POINT('',(25.,-17.8125,40.40729128115));
#2188 = VECTOR('',#2189,1.);
#2189 = DIRECTION('',(0.,0.866025403784,0.5));
#2190 = PLANE('',#2191);
#2191 = AXIS2_PLACEMENT_3D('',#2192,#2193,#2194);
#2192 = CARTESIAN_POINT('',(25.,-17.8125,40.40729128115));
#2193 = DIRECTION('',(0.,0.5,-0.866025403784));
#2194 = DIRECTION('',(0.,0.866025403784,0.5));
#2195 = ADVANCED_FACE('',(#2196),#2214,.F.);
#2196 = FACE_BOUND('',#2197,.T.);
#2197 = EDGE_LOOP('',(#2198,#2199,#2205,#2206,#2207,#2213));
#2198 = ORIENTED_EDGE('',*,*,#1778,.F.);
#2199 = ORIENTED_EDGE('',*,*,#2200,.F.);
#2200 = EDGE_CURVE('',#1980,#1771,#2201,.T.);
#2201 = LINE('',#2202,#2203);
#2202 = CARTESIAN_POINT('',(25.,-17.8125,16.40729128115));
#2203 = VECTOR('',#2204,1.);
#2204 = DIRECTION('',(-1.,-0.,-0.));
#2205 = ORIENTED_EDGE('',*,*,#1979,.T.);
#2206 = ORIENTED_EDGE('',*,*,#1968,.T.);
#2207 = ORIENTED_EDGE('',*,*,#2208,.T.);
#2208 = EDGE_CURVE('',#1971,#1746,#2209,.T.);
#2209 = LINE('',#2210,#2211);
#2210 = CARTESIAN_POINT('',(25.,-16.1875,16.40729128115));
#2211 = VECTOR('',#2212,1.);
#2212 = DIRECTION('',(-1.,-0.,-0.));
#2213 = ORIENTED_EDGE('',*,*,#1743,.F.);
#2214 = CYLINDRICAL_SURFACE('',#2215,1.625);
#2215 = AXIS2_PLACEMENT_3D('',#2216,#2217,#2218);
#2216 = CARTESIAN_POINT('',(25.,-17.,15.));
#2217 = DIRECTION('',(-1.,-0.,-0.));
#2218 = DIRECTION('',(0.,0.,-1.));
#2219 = ADVANCED_FACE('',(#2220),#2231,.F.);
#2220 = FACE_BOUND('',#2221,.F.);
#2221 = EDGE_LOOP('',(#2222,#2223,#2224,#2230));
#2222 = ORIENTED_EDGE('',*,*,#2208,.T.);
#2223 = ORIENTED_EDGE('',*,*,#1754,.T.);
#2224 = ORIENTED_EDGE('',*,*,#2225,.F.);
#2225 = EDGE_CURVE('',#1997,#1755,#2226,.T.);
#2226 = LINE('',#2227,#2228);
#2227 = CARTESIAN_POINT('',(25.,-16.91099272381,16.825));
#2228 = VECTOR('',#2229,1.);
#2229 = DIRECTION('',(-1.,-0.,-0.));
#2230 = ORIENTED_EDGE('',*,*,#2004,.F.);
#2231 = PLANE('',#2232);
#2232 = AXIS2_PLACEMENT_3D('',#2233,#2234,#2235);
#2233 = CARTESIAN_POINT('',(25.,-16.1875,16.40729128115));
#2234 = DIRECTION('',(0.,0.5,0.866025403784));
#2235 = DIRECTION('',(0.,-0.866025403784,0.5));
#2236 = ADVANCED_FACE('',(#2237),#2248,.T.);
#2237 = FACE_BOUND('',#2238,.T.);
#2238 = EDGE_LOOP('',(#2239,#2245,#2246,#2247));
#2239 = ORIENTED_EDGE('',*,*,#2240,.T.);
#2240 = EDGE_CURVE('',#1989,#1763,#2241,.T.);
#2241 = LINE('',#2242,#2243);
#2242 = CARTESIAN_POINT('',(25.,-17.08900727618,16.825));
#2243 = VECTOR('',#2244,1.);
#2244 = DIRECTION('',(-1.,-0.,-0.));
#2245 = ORIENTED_EDGE('',*,*,#1762,.T.);
#2246 = ORIENTED_EDGE('',*,*,#2225,.F.);
#2247 = ORIENTED_EDGE('',*,*,#1996,.F.);
#2248 = PLANE('',#2249);
#2249 = AXIS2_PLACEMENT_3D('',#2250,#2251,#2252);
#2250 = CARTESIAN_POINT('',(25.,-17.08900727618,16.825));
#2251 = DIRECTION('',(0.,0.,-1.));
#2252 = DIRECTION('',(0.,1.,0.));
#2253 = ADVANCED_FACE('',(#2254),#2260,.T.);
#2254 = FACE_BOUND('',#2255,.T.);
#2255 = EDGE_LOOP('',(#2256,#2257,#2258,#2259));
#2256 = ORIENTED_EDGE('',*,*,#2200,.T.);
#2257 = ORIENTED_EDGE('',*,*,#1770,.T.);
#2258 = ORIENTED_EDGE('',*,*,#2240,.F.);
#2259 = ORIENTED_EDGE('',*,*,#1988,.F.);
#2260 = PLANE('',#2261);
#2261 = AXIS2_PLACEMENT_3D('',#2262,#2263,#2264);
#2262 = CARTESIAN_POINT('',(25.,-17.8125,16.40729128115));
#2263 = DIRECTION('',(0.,0.5,-0.866025403784));
#2264 = DIRECTION('',(0.,0.866025403784,0.5));
#2265 = ADVANCED_FACE('',(#2266),#2284,.F.);
#2266 = FACE_BOUND('',#2267,.T.);
#2267 = EDGE_LOOP('',(#2268,#2269,#2275,#2276,#2277,#2283));
#2268 = ORIENTED_EDGE('',*,*,#1839,.F.);
#2269 = ORIENTED_EDGE('',*,*,#2270,.F.);
#2270 = EDGE_CURVE('',#2054,#1832,#2271,.T.);
#2271 = LINE('',#2272,#2273);
#2272 = CARTESIAN_POINT('',(25.,-56.8125,16.40729128115));
#2273 = VECTOR('',#2274,1.);
#2274 = DIRECTION('',(-1.,-0.,-0.));
#2275 = ORIENTED_EDGE('',*,*,#2053,.T.);
#2276 = ORIENTED_EDGE('',*,*,#2042,.T.);
#2277 = ORIENTED_EDGE('',*,*,#2278,.T.);
#2278 = EDGE_CURVE('',#2045,#1807,#2279,.T.);
#2279 = LINE('',#2280,#2281);
#2280 = CARTESIAN_POINT('',(25.,-55.1875,16.40729128115));
#2281 = VECTOR('',#2282,1.);
#2282 = DIRECTION('',(-1.,-0.,-0.));
#2283 = ORIENTED_EDGE('',*,*,#1804,.F.);
#2284 = CYLINDRICAL_SURFACE('',#2285,1.625);
#2285 = AXIS2_PLACEMENT_3D('',#2286,#2287,#2288);
#2286 = CARTESIAN_POINT('',(25.,-56.,15.));
#2287 = DIRECTION('',(-1.,-0.,-0.));
#2288 = DIRECTION('',(0.,0.,-1.));
#2289 = ADVANCED_FACE('',(#2290),#2301,.F.);
#2290 = FACE_BOUND('',#2291,.F.);
#2291 = EDGE_LOOP('',(#2292,#2293,#2294,#2300));
#2292 = ORIENTED_EDGE('',*,*,#2278,.T.);
#2293 = ORIENTED_EDGE('',*,*,#1815,.T.);
#2294 = ORIENTED_EDGE('',*,*,#2295,.F.);
#2295 = EDGE_CURVE('',#2071,#1816,#2296,.T.);
#2296 = LINE('',#2297,#2298);
#2297 = CARTESIAN_POINT('',(25.,-55.91099272381,16.825000000001));
#2298 = VECTOR('',#2299,1.);
#2299 = DIRECTION('',(-1.,-0.,-0.));
#2300 = ORIENTED_EDGE('',*,*,#2078,.F.);
#2301 = PLANE('',#2302);
#2302 = AXIS2_PLACEMENT_3D('',#2303,#2304,#2305);
#2303 = CARTESIAN_POINT('',(25.,-55.1875,16.40729128115));
#2304 = DIRECTION('',(0.,0.5,0.866025403784));
#2305 = DIRECTION('',(0.,-0.866025403784,0.5));
#2306 = ADVANCED_FACE('',(#2307),#2318,.T.);
#2307 = FACE_BOUND('',#2308,.T.);
#2308 = EDGE_LOOP('',(#2309,#2315,#2316,#2317));
#2309 = ORIENTED_EDGE('',*,*,#2310,.T.);
#2310 = EDGE_CURVE('',#2063,#1824,#2311,.T.);
#2311 = LINE('',#2312,#2313);
#2312 = CARTESIAN_POINT('',(25.,-56.08900727618,16.825000000001));
#2313 = VECTOR('',#2314,1.);
#2314 = DIRECTION('',(-1.,-0.,-0.));
#2315 = ORIENTED_EDGE('',*,*,#1823,.T.);
#2316 = ORIENTED_EDGE('',*,*,#2295,.F.);
#2317 = ORIENTED_EDGE('',*,*,#2070,.F.);
#2318 = PLANE('',#2319);
#2319 = AXIS2_PLACEMENT_3D('',#2320,#2321,#2322);
#2320 = CARTESIAN_POINT('',(25.,-56.08900727618,16.825000000001));
#2321 = DIRECTION('',(0.,0.,-1.));
#2322 = DIRECTION('',(0.,1.,0.));
#2323 = ADVANCED_FACE('',(#2324),#2330,.T.);
#2324 = FACE_BOUND('',#2325,.T.);
#2325 = EDGE_LOOP('',(#2326,#2327,#2328,#2329));
#2326 = ORIENTED_EDGE('',*,*,#2270,.T.);
#2327 = ORIENTED_EDGE('',*,*,#1831,.T.);
#2328 = ORIENTED_EDGE('',*,*,#2310,.F.);
#2329 = ORIENTED_EDGE('',*,*,#2062,.F.);
#2330 = PLANE('',#2331);
#2331 = AXIS2_PLACEMENT_3D('',#2332,#2333,#2334);
#2332 = CARTESIAN_POINT('',(25.,-56.8125,16.40729128115));
#2333 = DIRECTION('',(0.,0.5,-0.866025403784));
#2334 = DIRECTION('',(0.,0.866025403784,0.5));
#2335 = ADVANCED_FACE('',(#2336,#2342),#2349,.T.);
#2336 = FACE_BOUND('',#2337,.T.);
#2337 = EDGE_LOOP('',(#2338,#2339,#2340,#2341));
#2338 = ORIENTED_EDGE('',*,*,#1873,.F.);
#2339 = ORIENTED_EDGE('',*,*,#1897,.T.);
#2340 = ORIENTED_EDGE('',*,*,#1921,.F.);
#2341 = ORIENTED_EDGE('',*,*,#1945,.F.);
#2342 = FACE_BOUND('',#2343,.T.);
#2343 = EDGE_LOOP('',(#2344,#2345,#2346,#2347,#2348));
#2344 = ORIENTED_EDGE('',*,*,#2110,.F.);
#2345 = ORIENTED_EDGE('',*,*,#2101,.F.);
#2346 = ORIENTED_EDGE('',*,*,#2185,.T.);
#2347 = ORIENTED_EDGE('',*,*,#2168,.T.);
#2348 = ORIENTED_EDGE('',*,*,#2144,.F.);
#2349 = PLANE('',#2350);
#2350 = AXIS2_PLACEMENT_3D('',#2351,#2352,#2353);
#2351 = CARTESIAN_POINT('',(25.,-17.,39.381088084953));
#2352 = DIRECTION('',(1.,0.,0.));
#2353 = DIRECTION('',(0.,0.,1.));
#2354 = ( GEOMETRIC_REPRESENTATION_CONTEXT(3) 
GLOBAL_UNCERTAINTY_ASSIGNED_CONTEXT((#2358)) 
GLOBAL_UNIT_ASSIGNED_CONTEXT((#2355,#2356,#2357)) REPRESENTATION_CONTEXT
('Context #1','3D Context with UNIT and UNCERTAINTY') );
#2355 = ( LENGTH_UNIT() NAMED_UNIT(*) SI_UNIT(.MILLI.,.METRE.) );
#2356 = ( NAMED_UNIT(*) PLANE_ANGLE_UNIT() SI_UNIT($,.RADIAN.) );
#2357 = ( NAMED_UNIT(*) SI_UNIT($,.STERADIAN.) SOLID_ANGLE_UNIT() );
#2358 = UNCERTAINTY_MEASURE_WITH_UNIT(LENGTH_MEASURE(2.E-04),#2355,
  'distance_accuracy_value','confusion accuracy');
#2359 = PRODUCT_RELATED_PRODUCT_CATEGORY('part',$,(#7));
#2360 = MECHANICAL_DESIGN_GEOMETRIC_PRESENTATION_REPRESENTATION('',(
    #2361),#2354);
#2361 = STYLED_ITEM('color',(#2362),#15);
#2362 = PRESENTATION_STYLE_ASSIGNMENT((#2363,#2371));
#2363 = SURFACE_STYLE_USAGE(.BOTH.,#2364);
#2364 = SURFACE_SIDE_STYLE('',(#2365,#2369));
#2365 = SURFACE_STYLE_FILL_AREA(#2366);
#2366 = FILL_AREA_STYLE('',(#2367));
#2367 = FILL_AREA_STYLE_COLOUR('',#2368);
#2368 = COLOUR_RGB('',0.447058818107,0.474509808674,0.501960817233);
#2369 = SURFACE_STYLE_RENDERING_WITH_PROPERTIES(.NORMAL_SHADING.,#2368,(
    #2370));
#2370 = SURFACE_STYLE_TRANSPARENT(0.699999988079);
#2371 = CURVE_STYLE('',#2372,POSITIVE_LENGTH_MEASURE(0.1),#2373);
#2372 = DRAUGHTING_PRE_DEFINED_CURVE_FONT('continuous');
#2373 = COLOUR_RGB('',9.803921802644E-02,9.803921802644E-02,
  9.803921802644E-02);
ENDSEC;
END-ISO-10303-21;
